<svg version="1.0" xmlns="http://www.w3.org/2000/svg" width="729.333" height="416" viewBox="0 0 547 312"><path d="M308 4.6c-51.6 4.4-71.2 7.4-110.4 17l-14 3.4h-29.3c-32.6 0-37.7.6-53.7 6.5-24.8 9.1-35.7 15.4-48.2 28C33.1 79 17 114.8 17 138.5c0 4.6.5 9.6 1.1 11.1.5 1.6 1.4 7.6 1.8 13.4.8 10.5 3.2 18.5 9.3 30.3 5.6 11 17.7 23.3 30.5 31 18.3 11 27 12.5 59.5 10.8 24.7-1.2 40.6-1.6 41.3-.9.8.7 7.5-.4 7.5-1.3 0-.5.9-.9 2-.9s2 .4 2 1c0 .5 1.8 1 3.9 1 2.2 0 4.2.4 4.6.9.3.5 1.8 1 3.3 1 2.8 0 3.7.2 15.7 1.9 3.9.6 15.6 2.2 26 3.6 25.8 3.6 43.1 7 61.5 12.3 8.5 2.5 16.2 4.6 17 4.7.8.2 3.5 1.2 6 2.3 2.5 1.1 6.3 2.6 8.5 3.3 2.2.7 6.9 2.5 10.5 4.1 12 5.2 49.7 19.7 56.6 21.7 3.8 1.1 10.4 2.8 14.8 3.6 11.2 2.3 35.6 2 34.1-.3-.2-.4 3.5-1.5 8.3-2.4 4.8-1 9.6-2 10.7-2.2 9.3-2.1 11.5-2.8 12.6-4.1.6-.8 1.7-1.4 2.3-1.4.6 0 6.4-2.7 12.8-5.9 20.7-10.4 34.1-23.5 46.1-44.6 11.6-20.3 16.4-46.5 12.3-66.2-5.3-24.8-15.7-44.8-30.2-58.2-12.8-11.7-21.6-16.3-51.5-26.6-9-3.2-18.5-6.8-21-8.1-11.6-5.8-23.9-15.4-40.3-31.2C378.8 24.9 371 18.5 362 14c-6.7-3.3-16.6-6.6-24.1-7.9-6.8-1.2-23.6-2-29.9-1.5z"/></svg>