<svg version="1.0" xmlns="http://www.w3.org/2000/svg" width="457.333" height="448" viewBox="0 0 343 336"><path d="M182.9 10.5c-9.8 2-16.3 4.9-37.4 16.9-31.2 17.9-43.7 26-52.5 34.3-17 16-24.5 30.6-29 56.8-2.8 16-4.3 19-12.6 25.8-11.3 9.1-13.9 11.8-20.6 20.7-7.6 10.2-10 15.4-13.4 29.7-6.2 25.4-.2 49.8 18.3 75.6 7.3 10 13 15.3 22.3 20.6 4.1 2.4 10.4 6.2 14 8.6 13.9 9.2 22.6 12.2 48 16.9 7.4 1.4 22.3 3.4 33 4.6 10.7 1.2 23.7 3 28.9 4.1 6.7 1.4 13.5 1.9 24 1.9 16.4 0 39.6-1.7 42.6-3.1 1.1-.5 5.6-1.6 10-2.3 21.1-3.7 43.5-19.5 51.8-36.6 10.1-20.7 14.2-55.8 10.1-86.5-2.4-17.6-1.5-30.8 3.6-52.4 5-21.5 5.3-31.6 1.6-46.3-2.5-10-8.9-26.2-13.1-33.4-8.4-14.3-24-28.8-39.6-36.9-9.2-4.8-30.3-13.3-39.3-15.9-14.8-4.3-37.6-5.7-50.7-3.1z"/></svg>