<svg version="1.0" xmlns="http://www.w3.org/2000/svg" width="656" height="406.667" viewBox="0 0 492 305"><path d="M396.1 14.1c-11.5 2.2-24.2 8.1-36.1 16.4-7.6 5.4-13.6 11.2-22.8 22.1-7.5 8.9-17.4 12.9-42.2 17.4-13.6 2.5-22.2 8.7-42.3 30.9-7.1 7.7-13.2 14.1-13.7 14.1-.4 0-2.7 1.7-5.1 3.8-5.3 4.6-27.6 20.2-29 20.2-.5 0-.9.4-.9.9s-1.1 1.2-2.5 1.5c-1.5.4-2.7 1.6-3.1 3.1-.4 1.8-1 2.3-2.1 1.7-.9-.5-3.7.2-7.5 2.1-6.4 3-20.5 7-40.1 11.2-10.4 2.2-14.3 2.5-31.2 2.5-33.7 0-50.7 3-70 12.4-17.2 8.4-27.2 17.2-32.2 28.4-9 20.3 9.4 43.2 48.9 60.4 22.3 9.8 41.6 15 76.1 20.3 12.8 2 26 4.3 29.5 5.1 7.2 1.6 30 1.9 40.2.5 3.6-.5 20-1.7 36.5-2.6 35.6-2 43.6-3.1 61.5-9 7.4-2.4 18.2-5.8 24-7.5 5.8-1.8 15-5.1 20.5-7.5 5.5-2.3 11-4.6 12.2-4.9 2-.6 21.9-14.4 23.5-16.3.4-.4 3.6-4.1 7.2-8.1 4-4.5 10.5-14 16.9-25 10.8-18.3 20-32.4 36.7-56.7 12.4-18 22.3-37.9 25-50.5 2.4-11.5 2.6-27 .4-37.8-6.1-30.1-32.3-50.5-64.3-50.1-5.3.1-11.6.5-14 1z"/></svg>