<svg version="1.0" xmlns="http://www.w3.org/2000/svg" width="514.667" height="556" viewBox="0 0 386 417"><path d="M219 9c-21.1 3.9-31.5 8.1-49.1 20-5.6 3.9-13.3 11.2-29.4 27.9-9.9 10.3-16.7 15.2-32 23.2C87.4 91 68 103.5 58.4 112.2c-11.2 10.3-23.6 30.7-30.8 50.6-6.3 17.6-10.6 38.9-10.6 52.5 0 20.5 2.8 38.7 8 51.1 4.3 10.3 25.9 46.1 34.1 56.6 16.9 21.6 36.2 41.2 48.8 49.7 23.6 15.7 46.5 24.7 70.1 27.4 10.1 1.1 50.9.7 60.5-.6 24.3-3.4 48.3-13.7 70.2-30.2 10.6-8 25.5-22.5 32.1-31.2 8.6-11.4 28.2-51.5 28.2-57.6 0-.9.7-4 1.5-6.8 2.4-8.6 4.5-28.3 4.5-42.3 0-20.7-2.9-33.8-11-49.7-4.8-9.4-9.4-15.7-20.7-28.5-4.7-5.4-10-11.9-11.9-14.7-6.8-10-11-28.2-11.9-51.4-1.1-27.4-4.6-37.6-18.2-53.9-9-10.5-21.1-18.1-36.8-22.7C252.7 7 233.4 6.3 219 9z"/></svg>