<svg version="1.0" xmlns="http://www.w3.org/2000/svg" width="405.333" height="322.667" viewBox="0 0 304 242"><path d="M166 14.9c-4.7 1-15.3 3.3-23.7 5-35.5 7.3-56 17.7-76.9 38.8C52 72.1 45.9 80.1 38.7 93.5c-10.9 20-15.4 37.9-18.2 72-.4 4 1.6 15.7 3.6 22.5 2.3 7.2 6.4 14.5 11.6 20 2.9 3.2 5.3 6.2 5.3 6.6.1 1.8 5.8 7 10.6 9.6 12.6 6.8 31.9 6.1 49.4-1.9 4.9-2.2 6.1-3.4 10.6-10.7 2.9-4.4 5.9-9.8 6.9-11.8 1.6-3.4 3.7-6 8.2-9.8 2.5-2.1 12.6-1.7 18.3.6 2.5 1.1 6.8 3.2 9.5 4.7 30.8 17 31.7 17.2 43.3 11.2 17.2-8.9 20.5-11.7 24.9-20.8 4.5-9.2 5.5-14.8 5.2-29.8-.1-7.4 0-14.3.2-15.5.9-3.7 5.7-11 9.8-14.7 2.3-2 4.1-4.1 4.1-4.7 0-.5.7-.7 1.5-.4.8.4 1.5.2 1.5-.4 0-1.6 6-3.9 15-5.7 8.6-1.7 19.6-5.1 21.4-6.7.6-.4 2.3-1.9 3.8-3.2l2.7-2.4-1.5-14.8c-.7-8.1-2-17.1-2.9-19.9-5-17.5-24.9-34.4-54-45.9-3.8-1.6-7.9-3.2-9-3.6-9.3-3.8-12.5-4.3-29-4.6-13.8-.3-18.6 0-25.5 1.5z"/></svg>