<svg version="1.0" xmlns="http://www.w3.org/2000/svg" width="309.333" height="280" viewBox="0 0 232 210"><path d="M147.6 6c-1.4 1.7-2.6 3.5-2.6 3.8 0 .4-.4 1.3-.9 2.1-.7 1-1.3 1.1-3 .1-4.8-2.5-7.8 1-6.5 7.5.9 4.8 7.5 11.9 10.2 11.1 1.1-.4 2.4 0 3.1.8.7.8 2.6 1.8 4.3 2.1 2.7.6 3.6.1 7.9-4.1 7.3-7.2 7.6-14.8.9-20.8-3.4-3-4.8-3.2-6.4-1-1 1.3-1.2 1.1-1.1-1.2 0-4-2.7-4.2-5.9-.4zm65.1 11.7c-.8 1-2.3 4.9-3.3 8.8-1.2 4.7-2.7 7.9-4.5 9.7-3.2 3.2-6.5 3.8-5.4 1 .8-1.9.9-2.7.7-6-.1-1.3-.9-2.2-1.9-2.3-1.1 0-1.3-.3-.5-.6 3.3-1.3-1-5.3-5.8-5.3-2.8 0-6.6 5.3-8 11-1.9 8.1-1 12.7 5.8 26.9 3.7 7.7 13.8 11.2 21.2 7.4 10.5-5.4 17.2-25.2 14.1-41.8-1.6-8.9-8.1-13.5-12.4-8.8zm-127 11.4c-1.5 1.1-3.2 3.8-3.8 6-.8 2.6-1.8 3.9-2.8 3.8-4.8-.4-8.6 2.2-9.7 6.7-.8 3.2 1.3 9.9 4.3 13.4 2.9 3.5 15 10 18.6 10 5.8 0 13.1-8 14.2-15.5.8-5-1.6-14.6-4.4-17.4-.9-.9-2-2.5-2.4-3.4-.7-1.9-2-2.1-4.6-.8-1.5.9-1.7.6-1.3-2 .4-2.7.2-2.9-2.6-2.9-1.6 0-4.1.9-5.5 2.1zm36 21c-4.7 2.7-9.4 18.8-8.1 27.7.9 6.3 2.4 9.5 7.8 17.2 6.3 8.7 9.3 10.5 17.8 10.4 14.1-.3 20-9.3 19.9-30.9C159 59.3 155 50 148.5 50c-4.7 0-6.4 3-7.2 12-.7 8-2.9 11.7-7.3 12.2-2.5.3-2.5.2-2.3-6.7.1-3.9.3-8.5.4-10.4.2-2-.2-3.6-.9-3.9-.7-.2-.9-.8-.6-1.4 1.5-2.4-5.4-3.7-8.9-1.7zM39.5 81.4c-6.7 6.9-10.3 21.5-7.5 30.2 2.9 9.1 11.1 19.6 16.9 21.6 5.7 1.9 17 1.6 21.5-.6 11-5.5 17-29.4 11.3-45-1.8-4.9-2.9-6.3-6.1-7.9-5.2-2.7-9-1.5-9.4 3.1-.2 1.7-.7 3.2-1.2 3.2s-.7 1.9-.4 4.2c.6 4 .3 4.7-3.6 9-3.8 4.3-4.6 4.8-8.5 4.8h-4.3l1.3-4.4c1.3-4.2 3.3-8.3 5.7-11.7C58 83.8 53.1 77 47.3 77c-3 0-4.4.8-7.8 4.4zm147.7 11.9c-.6.7-1.7 4.6-2.3 8.7-1 5.6-1.9 8.1-3.9 10.2-3.3 3.4-3.8 3.5-5 .3-.5-1.3-1.5-2.3-2.2-2.1-.7.1-1 .1-.5-.1 1.6-1 .6-3.4-1.8-4.3-6-2.3-10.9 3.5-10.9 12.9 0 4.3.4 5.7 2.2 7.1 1.2 1 2.2 2.9 2.2 4.4 0 3.1 5.9 9.3 9.6 10.2 1.4.4 4.2.3 6.2-.1s4.7-.7 6-.7c1.2 0 2.2-.5 2.2-1.2 0-1.6 6-6.7 7.1-6 .5.3 1.2-.3 1.5-1.3.3-1 1-2.7 1.6-3.8 1.9-3.5 2.3-20.7.5-24.6-.8-1.9-1.8-4.7-2.2-6.4-.4-1.6-1.2-3.3-1.8-3.7-1.9-1.2-7.4-.9-8.5.5zm-90.8 31.2c-2.7 1.8-6.4 10.3-7.1 16.3-.3 2.9.1 7.2 1.2 11.1 4.3 16.6 13 25.1 25.5 25.1 10.3 0 16.6-4.9 20.5-15.9 1.7-4.8 2.1-20.1.6-22.9-.6-.9-1.2-2.9-1.5-4.4-.4-1.9-1.5-3-3.9-3.7-4.9-1.6-6.5-.6-9.6 6.4-3.3 7.1-6 9.5-11.2 9.5-4.9 0-6.3-1.9-5.6-7.8.6-4.9-1-13.2-2.8-14.4-1.6-1.2-3.9-.9-6.1.7zm-86 32.6c-2.8 3.1-2.6 16.4.4 23.9 2.9 7.2 9.1 15.1 11.5 14.6 1.5-.4 1.6-.2.6 1-1.8 2.2-.3 2.9 6.4 2.9 8.3 0 14.9-2.7 18.9-7.7 2.8-3.5 3.1-4.8 3.5-12.6.4-7.3.2-9.6-1.7-14.6-1.2-3.2-3.1-6.7-4.2-7.8-3.7-3.7-7.8-1-9.2 6.2-.8 3.7-8.3 11.2-10.9 10.8-1.9-.3-2.2-1-2.3-5.3-.1-3-1-6.8-2.3-9.3-1.9-3.7-2.6-4.2-5.5-4.2-2.1 0-4 .8-5.2 2.1z"/></svg>