<svg version="1.0" xmlns="http://www.w3.org/2000/svg" width="293.333" height="236" viewBox="0 0 220 177"><path d="M90.3 12.2c-.4.7-.8 4.3-.8 7.9-.1 9.8-6.2 20.6-9.6 17.2-1.5-1.5.7-7.3 2.7-7.3 2.4 0 5-7.4 3.4-10-2.4-4-11.3 6.2-12.6 14.5-.7 5.1.2 9.9 2.3 12 .8.9 3.3 1.5 5.8 1.5 3.6 0 4.7-.5 7.3-3.4 6.3-7.2 10.4-25.6 6.8-31.1-1.8-2.7-4-3.2-5.3-1.3zm91.7 7.4c-4.6 5.3-7.1 11.9-7.7 20.4-.7 9.6.9 15.4 5.3 19.8 4.2 4.2 7.1 3.8 12.6-1.5 5.4-5.2 9.1-14.2 9.6-23.3.4-7 .2-7.8-2.2-10.7-1.4-1.7-3.8-3.4-5.3-3.8-1.5-.3-3.3-1.5-4.1-2.6-2-2.9-4.6-2.3-8.2 1.7zM30.5 30.5c-8.6 3-19.5 19.9-20.3 31.4-.5 7.6 2.2 14.8 6.8 17.9 1.9 1.3 3.6 1.9 3.8 1.4.1-.5 1.5-.7 3-.5 8.5 1.2 19.2-19.8 19.6-38.4.2-11.4-3.8-15.1-12.9-11.8zm0 13.5c.8 0 1.8-.8 2.4-1.8.7-1.1 1.3-1.4 2-.7 1.5 1.5-1.3 12.6-4.7 18.8-2.8 5.1-7.6 8.5-10.6 7.4-2.3-.9-2-7.2.5-12.7 3.3-7.4 8.3-14.7 8.7-12.7.2.9 1 1.7 1.7 1.7zm102.8-9c-1 1.1-2.3 2-3.1 2-3.7 0-11.6 13.6-12.8 22.1-.8 5.5 1.6 14.4 4.6 17.7 3.1 3.3 8.1 2.9 12.3-.8 6.1-5.3 12.6-21.7 12.9-32.4.1-4.6-.3-6-2.2-8.1-3-3.2-9.2-3.5-11.7-.5zm4.5 10.9c2 1.2-2.1 11-6.7 16.2-3.4 3.9-4 4.2-5.6 2.9-2.1-1.7-1.6-6.2 1.6-13.8 1.9-4.6 2.3-5 4.1-3.9 1.7 1 2.2.9 3.2-.6 1.2-1.9 1.6-2 3.4-.8zm-72 15.2c-4.4 2.4-13 21.5-14.4 31.7-.5 3.8-.2 6 1.4 9.6 1.9 4.2 2.4 4.6 5.5 4.6 1.9 0 4.5-.9 5.9-1.9C69.4 101 76 84.5 76 75.7c0-5-1.6-8.6-5.3-12.4-2.5-2.4-3.6-2.9-4.9-2.2zM174 77c-1.1 1.1-2 2.7-2 3.7 0 .9-2.2 3.9-4.9 6.8-6.7 7-9.3 12.5-9.9 20.7-.2 3.7-.1 7.5.3 8.5.5 1 .7 2.2.6 2.7-.1.4 1 1.9 2.4 3.2 3.6 3.3 9.3 3.3 13.3 0 6.7-5.7 13.7-24.5 13-34.8-.4-5.5-.8-6.4-4.1-9.4-4.2-3.9-5.9-4.2-8.7-1.4zm3.5 22.1c-2.6 8.6-6.8 14.1-10.3 13.7-2.4-.3-2.7-.8-3-4.5-.5-6.3 6.9-19 10.2-17.7.8.3 1.7 0 2.2-.7.5-.9 1-.7 1.7.9s.5 3.9-.8 8.3zm-82.8 3.1c-4.1 5.7-6.4 10.1-9.1 17.8-3.1 8.6-2.8 13.9.8 16.8 1.3.9 2.1 2.3 1.8 3-.3 1 .4 1.3 2.4 1 5.1-.6 11.6-13.4 13-25.6.5-5.2.3-6.6-1.5-9.7-1.1-2-2.1-4.3-2.1-5.1 0-2.5-2.8-1.5-5.3 1.8zM129 129c-1.1 1.1-2.2 3.2-2.6 4.7-.3 1.6-2.1 5.7-3.9 9.3-4.4 8.6-5.8 14.1-4.9 19.6.6 4 .9 4.4 3.4 4.4 3.9 0 6.2-3.6 10.5-16.3 3.6-10.9 4.6-20.2 2.3-22.5-1.7-1.7-2.5-1.5-4.8.8z"/></svg>