<svg version="1.0" xmlns="http://www.w3.org/2000/svg" width="257.333" height="245.333" viewBox="0 0 193 184"><path d="M63.3 11.7c-.3 1-1.9 5.1-3.5 9.1-3.3 8.4-3.4 10.3-1 12.4 2.8 2.4 5.3 2.9 8.8 1.8 3.5-1.2 5.5-4.8 4.8-9.1-.2-1.3-.6-4.6-.9-7.2-.9-6.9-6.5-11.7-8.2-7zm69.7 11c-2.7 5.4-4.9 10.7-4.8 11.7.5 3.7 4.7 5.5 11.1 4.7 8-1 8.4-1.6 6.9-10.3-1.5-8.5-4.5-15.8-6.6-15.8-.9 0-3.6 4-6.6 9.7zm-35.7 10c-.3 1-2.1 5.4-3.9 9.8-4 9.5-4.1 10.9-1.2 12.9 2.9 2 14.3 2.2 15.1.3.6-1.6.1-4.8-1.9-13.9-2-8.6-6.5-13.7-8.1-9.1zM26.1 51.2c-.5 1.3-2.1 4.9-3.5 8.1-3.2 7.2-3.3 9.2-.2 11.3 3.2 2 13.4 1 14.4-1.4 1-2.8-2.7-14.5-5.5-17.4-3.2-3.4-4.1-3.5-5.2-.6zm34.4 2.2c-.8 1.9-2 6.6-2.6 10.6-1.5 9.1-.6 10.3 7.9 10.3 3.2 0 6.4-.3 7.1-.8 1.9-1.1.9-7.2-2.3-14.2-4.6-10-7.7-11.8-10.1-5.9zm71.4 5.3c-.7 1.5-2.9 6.6-5 11.1-2.2 4.6-3.9 8.9-3.9 9.6 0 .7 1.1 2.3 2.5 3.6 2.2 2 2.7 2.2 5.5 1 1.6-.7 3.9-1 4.9-.7 1.1.3 2.8-.1 3.7-.8 1.6-1.1 1.7-2.1.6-11.1-1.6-12.9-5.7-19.2-8.3-12.7zM168 78.2c-.5 1.3-2.5 6.3-4.5 11.3-2 4.9-3.8 9.5-4.1 10.2-.5 1 .9 2.7 4.8 5.9 2.2 1.8 12.4 2.7 14.8 1.4 1.8-.9 2.1-1.8 1.7-4.3-1.2-7-4.8-20.4-6.3-23.5-2-3.8-5-4.2-6.4-1zM90.3 93.9c-2.7 8.1-2.8 9.2-1.6 11.6.9 1.7 2 2.5 3 2.1.8-.3 2.9-.6 4.7-.6 1.8 0 4.1-.6 5.1-1.4 1.7-1.2 1.8-1.7.6-5.7-5.4-18.1-7.4-19.1-11.8-6zm-76.2-1.2c-1.5 3-4.1 12.5-4.1 15.3 0 5 7.4 8.7 11.4 5.7 1.9-1.4 1.9-2 .8-10.2-1.1-8.6-2.9-12.5-5.8-12.5-.7 0-1.7.8-2.3 1.7zm118.3 10c-.4 1.6-1.7 4.9-3 7.5-2.8 5.6-2.9 7.5-.6 10.5 1.5 2 2.3 2.1 6.7 1.5 4.7-.7 5-.9 5.3-3.8.3-3.5-2.4-15.2-4-17.2-1.7-2-3.7-1.4-4.4 1.5zm-78.7 12.5c-2 4.6-3.7 9-3.7 9.9 0 2.2 2.6 4.3 4.5 3.5.8-.3 1.5-.1 1.5.4 0 1.5 4.3 1.2 8.4-.5 4.3-1.8 4.5-3.4 1.5-12.3-1.9-5.7-4.7-9.2-7.4-9.2-.6 0-2.8 3.7-4.8 8.2zm45.8 6.8c-.7 1.1-5.5 18.6-5.5 19.9 0 1.7 4.2 5.1 6.3 5.1 4.2 0 9.6-2.1 10.1-3.8.6-1.9-2.9-13.5-5.8-19-1.6-3.2-3.9-4.1-5.1-2.2zm38.4 29c-2.5 7.7-3.1 10.5-2.3 11.8 1.1 1.8 5.6 3.6 11.6 4.7 3.2.6 3.6.4 4.2-1.8.7-3-2-18-4-21.9-1-1.8-2.2-2.8-3.8-2.8-2 0-2.7 1.2-5.7 10zm-81.3 4c-2 5.1-3 11.3-2.2 14.4.7 2.9 4.9 4.6 11.2 4.6 4.4 0 4.4 0 4.4-3.5 0-4-4.1-14.9-6.7-17.7-2.6-2.9-4.9-2.2-6.7 2.2z"/></svg>