<svg version="1.0" xmlns="http://www.w3.org/2000/svg" width="337.333" height="166.667" viewBox="0 0 253 125"><path d="M171.9 9.7c-2.4 2.1-4.6 4.1-4.9 4.4-1.3 1.8-13.9 7.9-15.2 7.4-.8-.3-2.1-1.8-3-3.3-2.7-4.5-5.5-6.5-8-5.8-1.3.3-5.4 3.3-9.3 6.6-9.1 7.9-10.4 8.1-16.2 3.6-7.7-6-13.1-4.6-25.6 6.2-2.7 2.3-5.2 4.2-5.6 4.2-.4 0-1.3-1.6-2-3.5-3.2-9-11.7-8.1-28.8 3.3-2.9 1.9-5.5 3.3-5.6 3.1-.2-.2-1.5-2.3-3-4.7-3-4.6-3-4.6-5.7-3.2-2.4 1.3-20 22.8-20 24.3.1.7.9 2.2 1.9 3.4 2.8 3.4 7.2 2.1 13.5-4l5.1-4.9 3.2 3.7c2.9 3.3 3.6 3.7 6.6 3.1 1.8-.3 4.9-1.7 6.7-3.1 1.9-1.4 3.8-2.5 4.4-2.5.6 0 2.4-1.3 4.1-2.8 1.6-1.5 4.7-3.5 6.7-4.5 3.5-1.5 3.7-1.5 4.3.1.3 1 2.3 3.5 4.4 5.6 5.7 5.6 7.9 5.2 15.9-2.7 3.7-3.6 8.5-7.4 10.7-8.5l4-2 2.7 2.1c5.8 4.8 7.3 5.7 8.8 5.3.8-.2 3.1-.7 5-1 2.3-.4 5.5-2.4 9.5-6.1 3.3-3 6.5-5.5 7.1-5.5.6 0 1.7 1.1 2.4 2.5s2.6 3.3 4.2 4.3c2.4 1.5 3.5 1.7 7.3.8 3-.7 4.4-1.5 4.2-2.5-.1-.9.8-1.4 2.6-1.5 1.6-.1 3.1-.6 3.5-1.1.4-.6 1.5-1.5 2.5-2 1-.6 1.8-1.5 1.8-2 0-3.8 8.3-7.3 9.5-4 .3.8 1.4 1.7 2.5 2 1.1.4 1.7 1 1.4 1.5-.3.5.6 1.2 2 1.6 2.8.7 5.4-1.6 5.4-4.6.1-2-2.9-5.5-5.2-6.4-1.1-.3-2.1-1.5-2.4-2.7-.3-1.1-1.7-2.5-3.2-3-1.9-.8-2.2-1.2-1.2-1.8.8-.5 1-1.4.7-2-1.4-2.1-5.3-1.1-9.7 2.6zM193 37c-2.5.9-9.7 4.1-16 7-13.3 6.1-21.3 9-24.8 9-1.3 0-4-.9-5.8-2.1-4.2-2.6-6.7-2.1-18.7 3.2-4.9 2.2-11 4.5-13.7 5.1-4.4 1-5.1.9-7.5-1.1C105 57 103 56 102.1 56c-.9 0-6.5 1.8-12.5 4-6.1 2.2-11.8 4-12.7 4-1 0-2.7-1.3-3.9-3-1.2-1.7-3-3-4.2-3-2.7 0-15 8.4-19.3 13.2-6.5 7.2-10.1 7.6-13 1.5-2.5-5.3-5.9-6.2-7.6-2-.7 1.5-2.5 5.6-4 9-3.4 7.3-3.4 7.1-.9 10.3l2 2.5 3.4-4c3.2-3.7 3.5-3.9 5.2-2.4 1.1.9 3.8 2.5 6 3.7l4.2 2 5.3-3.5c3-1.9 5.5-3.9 5.7-4.3 1.1-3 11.6-11 14.4-11 .9 0 1.8.7 2.2 1.5.3.8 1.6 1.5 3 1.5s2.8.5 3.1 1.1c1 1.5 5.7.3 15.9-4.2l8.8-3.9 2.9 2.5c3.4 2.8 10.1 4.5 10.7 2.6.2-.6.9-1.1 1.6-1.1.6 0 4.5-1.6 8.6-3.6s9.8-4.2 12.6-4.9c4.7-1.2 5.2-1.1 8 1.1 5 4.1 17.9 2.4 22.3-2.9.7-1 1.9-1.7 2.6-1.7.7 0 5.5-2.8 10.7-6.3 5.2-3.4 11.3-7.1 13.6-8.1 4.7-2.1 5.8-4.2 4.1-7.9-1.6-3.5-2.7-3.8-7.9-1.7zm27.5 36.1c-13.9 5.9-35.9 12.9-43 13.6-5.9.5-6.6.4-9.5-2.1-5-4.2-8.3-3.6-23.6 4.4l-13.5 7.1-3.2-2.7c-4.1-3.5-7.8-2.9-20.5 3-5.4 2.5-10.8 4.6-12 4.6-2 0-2.2-.5-2.2-5.1 0-5.7-2.5-10.9-5.1-10.9-2 0-6.3 5.5-5.5 6.9.3.5-.1 1.1-.9 1.5-.8.3-1.5 1.7-1.5 3 0 1.4-.7 2.9-1.6 3.4-1.3.7-1.4 1.3-.4 3.1.6 1.3.9 3 .6 3.8-.6 1.6 1.9 5.3 3.6 5.3.4 0 .8-1.1.8-2.4 0-3.6 1-5.6 2.9-5.5 1 0 1.1.2.4.6-1.8.7-1.6 3.2.2 3.9.8.4 1.2 1 .9 1.5-.3.5.1.9.8.9.7 0 1.8 1 2.3 2.3.8 1.8 1.9 2.3 5.8 2.5 3.1.2 5.5-.2 6.9-1.2 1.2-.9 2.9-1.6 3.6-1.6.8 0 2.7-1.1 4.4-2.5 4.1-3.5 10.1-5.1 13.3-3.7 1.4.6 2.5 1.8 2.5 2.6 0 1.4 1.5 1.5 8.4.7.4-.1.6-.8.2-1.6-.6-1.6 1.9-2.2 2.8-.6.7 1 5.6.2 5.6-.9 0-.5.9-1.2 2-1.5 1.1-.3 2-1 2-1.6 0-1.7 3.3-4.7 4.6-4.2.8.3 2.9-.5 4.8-1.6 3.3-2.1 3.5-2.1 6.5-.4 1.7 1 3.3 2.5 3.6 3.3.7 2 7.6 5.4 8.4 4.1.4-.5 2.7-.9 5.1-.8 2.5.1 4.5-.2 4.5-.6 0-.5 3.6-2 8-3.5 4.4-1.4 15.7-6.5 25-11.2l17-8.5.1-4.3c.1-2.3-.2-4.2-.7-4.2-.5 0-.9-.7-.9-1.5 0-2.3-3.6-1.6-13.5 2.6z"/></svg>