<svg version="1.0" xmlns="http://www.w3.org/2000/svg" width="332" height="364" viewBox="0 0 249 273"><path d="M78 14.7C64.5 34.8 55.8 49.1 54 53.9c-1.9 4.9-1.9 5.6-.5 7.7 1.8 2.8 5.1 3.8 8.4 2.6 1.8-.6 2.7-2.2 3.8-6.3.8-3 2.9-8 4.8-11.2 1.9-3.2 3.5-6.5 3.5-7.3 0-.8.4-1.4.9-1.4s1.8-2 3-4.4c1.1-2.4 4.3-7.9 7.1-12.1 2.7-4.3 5-8.1 5-8.6 0-1.5-3.3-4-4.6-3.5-.8.3-1.4.1-1.4-.4 0-2.3-1.8-.6-6 5.7zm89 14.7c-.6.8-1.7 1.3-2.5 1-1.3-.5-10.5 10.4-10.5 12.5 0 .6-.4 1.1-.9 1.1-1.4 0-8.3 10.9-7.6 12.1.5.7 1.2.6 2.2-.3 1.5-1.2 1.5-1.1.2.9-.8 1.4-1.6 1.8-2 1.1-1.1-1.8-2.6-.1-4.3 4.9-1.9 5.4-2.1 9.3-.5 9.3.6 0 .9.6.6 1.3-.4 1 .3 1.2 2.5.9 1.9-.3 3.2-1.2 3.5-2.3.3-1.1.9-1.9 1.3-1.9.8 0 3.4-5.7 3.6-7.5.1-2.5 1.7-5.5 2.8-5.5 1.6 0 4-4.5 3.2-5.9-.4-.5.3-1.5 1.4-2.1 1.1-.6 2-1.9 2-2.8 0-1 .5-2.3 1.1-2.9.7-.7.7-1.3 0-1.7-1.4-.9-.2-3.6 1.4-3 .7.3 2.1-.8 3.1-2.5s2.2-3.1 2.6-3.1c.4 0 .8-.7.8-1.5s-.5-1.5-1.1-1.5c-.5 0-.7-.5-.4-1 1-1.5-1.1-1.2-2.5.4zm-65 29.9c-2.7 5.6-7.8 15.2-11.4 21.3-3.6 6.1-6.9 12.5-7.2 14.2-.6 2.7-.2 3.3 2.7 5.1 1.9 1.2 3.7 2.1 4 2.1 1 0 18.6-37.2 20.5-43.1 1.9-6.3 1.6-8.4-1.5-9.2-1.9-.5-2.8.7-7.1 9.6zm107.3 29.2c-4.7 5.8-13.3 20.8-13.9 24.3-1 5.1.7 7.8 4.9 8 2.7.1 3.6-.4 4.6-2.4.6-1.4 1.1-3.1 1.1-3.8 0-1.2 9.3-20.1 12-24.3 1.1-1.8 1.2-2.4.1-3.7-2.2-2.7-5.8-1.9-8.8 1.9zm-165 6.9c-3 3.9-11.2 22.9-11.3 26.3 0 3.4 2.1 7.3 4.1 7.3 1 0 2.1.4 2.4 1 .3.5 1.6 1 2.9 1 1.9 0 3-1.6 6.9-9.8 2.5-5.3 5.2-12 5.8-14.7.7-2.8 1.6-5.5 2.1-6.1 1.3-1.8-.1-4.2-3.7-6.4-4.5-2.8-6-2.5-9.2 1.4zm95.7-.7c-3.1 2.2-11.3 15-16.7 26-3.5 7.3-4.4 10-4.1 13.4.3 3.6.8 4.5 3.7 6.1 3.9 2.2 4.3 1.9 6-4.2.7-2.5 2.4-6.4 3.7-8.7 1.3-2.3 2.4-5 2.4-6s.8-3 1.7-4.3c1-1.4 3-5 4.5-8s3.5-6.7 4.5-8.3c1.7-2.7 1.7-2.7-.8-5.1-2.5-2.3-2.8-2.4-4.9-.9zm24.5 36.2c-4.2 2.5-11 10.4-13.6 15.7-1.9 4.1-2 4.6-.6 6.8 1.2 1.8 2.4 2.3 5.4 2.2 3.4-.2 4-.6 6.2-4.6 1.3-2.5 4.8-7.5 7.8-11.1 2.9-3.6 5.3-7.1 5.3-7.6 0-1-4.3-3.3-6.3-3.3-.7 0-2.6.8-4.2 1.9zm-77.3 5.8c-5.4 2.6-15.2 15.5-15.2 20 0 2.8 2.7 4.3 6.3 3.6 1.8-.4 2.7-1.2 2.7-2.4 0-1 1.4-4 3-6.6 1.7-2.6 3-5 3-5.4 0-.4 1.4-2.1 3.1-3.8 2.9-2.9 3.6-6.1 1.4-6.7-.5-.2-2.5.4-4.3 1.3zm132.8 26c-5.9 6.7-11 15.4-11 18.8 0 4.1 2.1 5.8 7.2 5.9 4.1.1 4.2.1 4.4-3.7.2-2.2 2-7 4.3-11.2 4.2-7.6 5.2-12.5 2.7-12.5-.8 0-2.1-.2-2.9-.6-.8-.3-2.7 1-4.7 3.3zM38.9 173.2c-6.4 8.9-13.9 27.1-13.9 33.9 0 3.2.5 4.1 3 5.4 3.3 1.7 6.8 1.9 9 .5 1.2-.8 1.3-1.3.3-3-.7-1.1-1.3-2.7-1.3-3.5 0-2.8 8.1-26 10.1-28.7 1-1.5 1.9-3.4 1.9-4.1 0-2-2.7-4-4.1-3.1-.8.4-.9.3-.5-.4s.2-1.2-.3-1.2c-.6 0-2.5 1.9-4.2 4.2zm70.6 3.5c-7.6 9.2-24.5 34.5-24.5 36.7 0 2.4 2.7 4.9 4.2 3.9.7-.4 2.3-.6 3.5-.5 1.7.3 3.2-1.4 7.8-9.2 3.3-5.4 5.5-10.2 5.2-11.1-.4-.9.2-1.9 1.4-2.6 1.1-.6 4.2-4.4 6.9-8.4 2.6-4.1 5.5-8.2 6.4-9 2.3-2.3 2.1-5.5-.3-5.5-1.1 0-2.6-.3-3.4-.6-1-.4-3.4 1.7-7.2 6.3zm59.8 6.8c-3.5 2.4-21.3 23.6-23.5 27.8-2.5 5-2 7.9 1.5 9.1 3.8 1.4 8.1-1.2 8.5-5.1.2-1.7 4.5-8.3 10.8-16.7 5.8-7.6 10.3-14.5 10-15.3-.7-1.8-4.6-1.7-7.3.2zm37.1 23.2c-6.9 7.4-11.5 17.9-8.6 19.7 1.5.9 5.2-.6 5.2-2 0-.8.4-1.4 1-1.4.5 0 2.4-3 4-6.7 1.7-3.7 4-7.7 5.1-9 1.2-1.2 1.8-2.6 1.4-3.2-1.3-2.1-4.7-1-8.1 2.6zM71.3 224.2c-19 22.7-25.1 33.6-21.1 37.6 2 2 5.9 1.5 6.5-.8.3-1.1 1-2 1.5-2 .6 0 .8-1.3.4-3.1-.9-4.7 1.9-9.8 13.3-24.4 5.5-7.1 10-13.4 9.8-14-1-2.9-4-1-10.4 6.7z"/></svg>