<svg version="1.0" xmlns="http://www.w3.org/2000/svg" width="298.667" height="146.667" viewBox="0 0 224 110"><path d="M51 14.9c-9.1 2.5-13.2 4.4-19.8 9-8 5.7-11.8 10.6-10.6 13.9.5 1.4 1.4 2.7 1.9 2.9.6.2 3.3-1.5 6-3.8 6.4-5.3 14.1-9.1 23.8-11.8 7.4-2.1 8-2.1 13.9-.6 8.1 2 11.8 4.4 20.9 13.2 10.6 10.2 16.5 12.8 28.4 12.8 10.5-.1 12.8-1 22.5-9.3 8.7-7.4 15.6-10.4 24.2-10.6 7.3-.1 9.1-1.1 10.2-5.8.5-2.4.3-2.8-2-3.4-1.4-.4-6-.4-10.2-.2-9.5.6-16.4 3.6-24.8 11-8.3 7.2-13.1 9.2-21.3 8.6-9.3-.7-15-3.6-24.4-12.3-9.5-8.8-20-14.6-27.4-15.1-2.7-.2-7.7.5-11.3 1.5z"/><path d="M164.5 41.4c-5.9 1.9-11.9 5.1-22 12-19.5 13.1-28.4 13-53.2-1C71.4 42.3 68.4 41 62.2 41c-6.5 0-10.2 1.5-19.7 8-8.7 6.1-11.1 9.1-9.5 12 .6 1.1 1.4 2 1.9 2 .9 0 6.2-3.9 7.1-5.2.3-.4 4-2.1 8.2-3.7 13.2-5.3 18.6-4.1 40.6 9.3 11.7 7.1 19.1 9.6 28 9.6 9.7 0 14.6-1.8 25.3-9.2 16.6-11.6 23.9-14.1 37.6-13.1 7.9.6 9.2-.2 7.9-5.1-1.1-4.5-16.2-7-25.1-4.2z"/><path d="M173.3 67.3c-4.3.9-5.3 1.5-5.4 3.1-.1 1.7-.2 1.8-.6.3-.2-.9-.6-1.7-.7-1.7-1.7 0-9.2 4.8-12.8 8.2-4.5 4.2-9.1 6.6-13.4 7.2-1.1.2-2.7.7-3.4 1.1-1.1.7-.9 1 .6 1.6 1.3.5.7.8-2.3.8-2.4.1-4.3-.4-4.3-.9 0-.6-2.7-1-6-1s-6 .4-6 1c0 .5-.4 1-1 1-.5 0-.7-.6-.4-1.4.3-.9-.6-1.5-3.2-1.9-2-.3-9.8-3.5-17.3-7.1-21.4-10.2-29.4-11.5-42.2-6.7C48.4 73.4 41 79.3 41 82.1c0 2.9 2.9 3.5 6.4 1.5 12.5-7.3 24.2-7.6 38.5-1.1 4.3 1.9 8.8 3.5 10 3.5 1.2 0 2.4.7 2.8 1.6.3.8 1.2 1.3 2 1 .8-.3 3.4.6 5.8 2 2.5 1.4 4.9 2.3 5.5 1.9.5-.3 2.4.2 4.1 1.2 2.3 1.3 3.3 1.5 3.6.6.3-.9.9-1 2.3-.1s2.8.9 6-.2c3.2-1 4.6-1.1 6-.2 1.4.9 2.1.8 3-.3.6-.8 3.3-1.5 5.8-1.7 3.7-.2 4.7-.7 4.6-2-.1-1.3.4-1.6 2.6-1.1 2.3.4 3.2-.1 5-2.5 1.3-1.7 3.3-3.3 4.6-3.6 1.3-.4 2.4-1.3 2.4-2 0-1.5 2.1-2.6 5.1-2.6 1 0 1.9-.4 1.9-.9 0-.4 1.1-.6 2.5-.3 1.6.3 2.5 0 2.5-.8 0-.7.8-1 2-.7 2.5.6 7.3-1.6 6.2-2.9-.4-.5.4 0 1.7 1.1 1.9 1.7 3.8 2 12 2h9.6l.3-3.1c.3-3 .2-3-7-4.7-7.9-1.9-17.2-2-25.5-.4z"/></svg>