<svg version="1.0" xmlns="http://www.w3.org/2000/svg" width="581.333" height="581.333" viewBox="0 0 436 436"><path d="M193.5 7.2c-36.2 4-69.6 16.9-100.8 38.8C80.5 54.5 54.5 80.5 46 92.7c-22.3 31.9-34.9 64.8-38.9 102.5-4.6 41.9 5.5 88.6 27 125.6C44.2 338.1 52 348.1 68 364c20.3 20.3 38.3 33 62.1 43.6 54.8 24.4 117 24.4 171.8 0 23.8-10.6 41.8-23.3 62.1-43.6 20.3-20.3 33-38.3 43.6-62.1 24.4-54.8 24.4-117 0-171.8C397 106.3 384.3 88.3 364 68c-15.9-16-25.9-23.8-43.2-33.9C283.6 12.4 236 2.4 193.5 7.2zM245.1 75c13.2 2.7 23.6 6.3 35.4 12 42.1 20.4 70.5 57.2 80.7 104.4 3.1 14.5 3.1 42.7 0 57.2-3 13.8-6.5 24.1-12.2 35.9-20.4 42.1-57.2 70.5-104.4 80.7-14.5 3.1-42.7 3.1-57.2 0-68.3-14.7-115.9-70.1-119.1-138.7-3.6-76.5 52.4-143 129.2-153.4 10.9-1.5 36.4-.5 47.6 1.9z"/></svg>