<svg version="1.0" xmlns="http://www.w3.org/2000/svg" width="616" height="616" viewBox="0 0 462 462"><path d="M30 5.1C19.6 8.1 9 19.7 6.8 30.5c-4.3 20.2 16.5 41 36.7 36.7C59.1 64 71.4 47.7 69.7 32.8 68.5 22.7 60.5 12 50.6 7.1c-5.4-2.7-15.1-3.6-20.6-2zm128 0c-10.4 3-21 14.6-23.2 25.4-4.3 20.2 16.5 41 36.7 36.7 15.6-3.2 27.9-19.5 26.2-34.4-1.2-10.1-9.2-20.8-19.1-25.7-5.4-2.7-15.1-3.6-20.6-2zm128 0c-10.4 3-21 14.6-23.2 25.4-4.3 20.2 16.5 41 36.7 36.7 15.6-3.2 27.9-19.5 26.2-34.4-1.2-10.1-9.2-20.8-19.1-25.7-5.4-2.7-15.1-3.6-20.6-2zm128 0c-10.4 3-21 14.6-23.2 25.4-4.3 20.2 16.5 41 36.7 36.7 15.6-3.2 27.9-19.5 26.2-34.4-1.2-10.1-9.2-20.8-19.1-25.7-5.4-2.7-15.1-3.6-20.6-2zm-384 128c-10.4 3-21 14.6-23.2 25.4-4.3 20.2 16.5 41 36.7 36.7 15.6-3.2 27.9-19.5 26.2-34.4-1.2-10.1-9.2-20.8-19.1-25.7-5.4-2.7-15.1-3.6-20.6-2zm128 0c-10.4 3-21 14.6-23.2 25.4-4.3 20.2 16.5 41 36.7 36.7 15.6-3.2 27.9-19.5 26.2-34.4-1.2-10.1-9.2-20.8-19.1-25.7-5.4-2.7-15.1-3.6-20.6-2zm128 0c-10.4 3-21 14.6-23.2 25.4-4.3 20.2 16.5 41 36.7 36.7 15.6-3.2 27.9-19.5 26.2-34.4-1.2-10.1-9.2-20.8-19.1-25.7-5.4-2.7-15.1-3.6-20.6-2zm128 0c-10.4 3-21 14.6-23.2 25.4-4.3 20.2 16.5 41 36.7 36.7 15.6-3.2 27.9-19.5 26.2-34.4-1.2-10.1-9.2-20.8-19.1-25.7-5.4-2.7-15.1-3.6-20.6-2zm-384 128c-10.4 3-21 14.6-23.2 25.4-4.3 20.2 16.5 41 36.7 36.7 15.6-3.2 27.9-19.5 26.2-34.4-1.2-10.1-9.2-20.8-19.1-25.7-5.4-2.7-15.1-3.6-20.6-2zm128 0c-10.4 3-21 14.6-23.2 25.4-4.3 20.2 16.5 41 36.7 36.7 15.6-3.2 27.9-19.5 26.2-34.4-1.2-10.1-9.2-20.8-19.1-25.7-5.4-2.7-15.1-3.6-20.6-2zm128 0c-10.4 3-21 14.6-23.2 25.4-4.3 20.2 16.5 41 36.7 36.7 15.6-3.2 27.9-19.5 26.2-34.4-1.2-10.1-9.2-20.8-19.1-25.7-5.4-2.7-15.1-3.6-20.6-2zm128 0c-10.4 3-21 14.6-23.2 25.4-4.3 20.2 16.5 41 36.7 36.7 15.6-3.2 27.9-19.5 26.2-34.4-1.2-10.1-9.2-20.8-19.1-25.7-5.4-2.7-15.1-3.6-20.6-2zm-384 128c-10.4 3-21 14.6-23.2 25.4-4.3 20.2 16.5 41 36.7 36.7 15.6-3.2 27.9-19.5 26.2-34.4-1.2-10.1-9.2-20.8-19.1-25.7-5.4-2.7-15.1-3.6-20.6-2zm128 0c-10.4 3-21 14.6-23.2 25.4-4.3 20.2 16.5 41 36.7 36.7 15.6-3.2 27.9-19.5 26.2-34.4-1.2-10.1-9.2-20.8-19.1-25.7-5.4-2.7-15.1-3.6-20.6-2zm128 0c-10.4 3-21 14.6-23.2 25.4-4.3 20.2 16.5 41 36.7 36.7 15.6-3.2 27.9-19.5 26.2-34.4-1.2-10.1-9.2-20.8-19.1-25.7-5.4-2.7-15.1-3.6-20.6-2zm128 0c-10.4 3-21 14.6-23.2 25.4-4.3 20.2 16.5 41 36.7 36.7 15.6-3.2 27.9-19.5 26.2-34.4-1.2-10.1-9.2-20.8-19.1-25.7-5.4-2.7-15.1-3.6-20.6-2z"/></svg>