<svg version="1.0" xmlns="http://www.w3.org/2000/svg" width="370.667" height="481.333" viewBox="0 0 278 361"><path d="M192 13.1c-10.1 2.7-29.8 12.5-39.2 19.6-4.2 3.2-12.5 10.1-18.3 15.3-14.2 12.6-27.2 22.3-35.4 26.5-3.7 1.8-13.5 5.7-21.7 8.5-38.8 13.5-54.7 28.6-56.2 53.7-.6 10.8 2.5 21.8 11.9 41.6 6.6 13.7 7.3 16 10.1 30.5 2.3 12.5 2.9 17.7 2.6 25.7-.5 12.2-2.8 17.9-11.2 27.5-12.4 14.1-14.6 24.6-8.7 39.8 3.8 9.5 12.9 24 19.9 31.4 5.1 5.5 14.2 12.3 21 15.7 11.7 5.9 35.8 7.8 52.2 4.2 15.1-3.4 37.6-12.3 44.5-17.5 4.6-3.5 19.4-22.7 25.4-32.8 2.8-4.8 5.6-9 6.2-9.4 2.3-1.4 9.8-19.4 13.5-32.4 3.9-13.5 3.9-13.5 3.9-32 0-10.2-.4-25.8-.8-34.7-1-18.1-.3-22.3 5.4-33.4 5.1-10.2 14.6-23.4 23.9-33.4 6-6.3 17.8-22.5 20.5-28 3.8-7.7 6.7-20 7.2-31.2.5-8.5.2-11.2-1.6-17.1-8.7-28.8-43.3-46.3-75.1-38.1zm35.4 13.5c14.1 3.6 25.2 11.2 29.2 19.8 1.9 4.1 2.4 6.8 2.4 13.6 0 19.2-5.6 30.7-26.5 54.5-15.3 17.5-25.4 33.5-30 47.4-1.9 5.7-1.8 5.4-1.7 47 .2 33.4-.4 36.2-11.8 62.6-2.8 6.6-6.2 14.7-7.4 18-6 15.6-18.5 36.1-24.6 40.1-3.4 2.2-16 7.3-25 9.9-21.3 6.4-48.5 5.7-60.5-1.6-13.1-8-25.8-22.9-33.4-39.3-6-13.1-5.5-17.3 3.8-29.4 8.8-11.6 13-18.2 14.1-22.2 2.3-8.4 2.8-21.2 1.4-31-3.3-22.5-5.4-30.1-11-39.5-3-5.2-8-18.8-9.9-27-1.9-8.1-.7-20.4 2.3-23.7 1.2-1.3 3.6-4.3 5.4-6.8 7.3-9.7 17.7-15.6 41.9-23.8 29.2-9.9 35.8-14 69.4-43.3 9.3-8.1 16.6-13 27.4-18.4 15.8-8 31-10.4 44.5-6.9z"/><path d="M203.5 41.7c-18.4 2.4-36 13.7-70.3 45-11.7 10.7-13.5 11.9-25.1 17.4-29.3 13.8-39.9 20.3-46.6 28.7-11.4 14.4-10 24.5 7.2 50.3 4.1 6.2 7.5 12.6 8.2 15.5 2 7.7 2.5 18.7 1.2 25.6-3.7 19.5-18 51.4-24 53.3-3 .9-5.4 8.3-4.9 14.9 1 11.6 11.5 26.7 22.3 32 7.3 3.6 19.4 5.9 26.8 5.2 6.7-.7 23.4-6.6 29.2-10.4 5.1-3.3 14.3-11.8 17.2-15.7 3.7-5.1 8.6-15.4 8-16.9-.4-.9-.1-1.3.6-1 .8.3 1.7-1.2 2.3-3.8.6-2.4 2.5-8.8 4.3-14.3 9-28.8 12.2-41.3 15.5-61.1 2-11.6 4.2-22.8 5-25 2.4-6.7 8.4-19.4 12.2-25.6 3.6-5.9 16.8-23.3 23.8-31.4 4.8-5.6 11.9-19.2 15.2-29.4 2.2-6.8 2.7-10.5 2.8-18.6.1-9.6 0-10.3-3.6-17.6-4.3-8.6-10.7-15.1-16.4-16.7-3.9-1.1-5.3-1.1-10.9-.4zm16.8 12.4c5.6 4.3 7.1 17.2 3.7 29.9-3.6 13-9 22.3-21.1 36.5-13.2 15.4-18.2 22.3-24.1 33-8.8 16-11.6 25.3-14.8 49.8-3.2 24.9-16.4 71.8-24.8 88.2-7.3 14.3-18.5 23.6-35.2 29.1-18 5.8-35.6-3.5-42.9-22.6-3.5-9.1-2.9-12.8 2.8-20.2 2.8-3.5 5.8-7.4 6.9-8.8 1.9-2.5 6.1-10.5 8.8-16.8.8-1.7 2-4.7 2.8-6.5 4.6-10.2 6.6-19 6.7-29.2.1-5.6-.2-10.8-.6-11.5-.4-.6-1.4-3.9-2.1-7.3-1-4.2-3-8.5-6.2-13.1-2.6-3.7-5.3-7.8-6.1-9-.8-1.1-2.9-4.4-4.7-7.1-4.2-6.3-5.6-16.7-3.1-22.6 4.2-10 21.1-21.9 46.5-32.4 14.7-6.1 21.6-10.8 33.2-22 8.3-8.1 12.6-11.7 25.5-21.8 8.2-6.4 24-14.9 31-16.7 1.7-.4 5.8-.8 9.1-.9 4.8-.1 6.7.4 8.7 2z"/><path d="M192.5 71.9C173.4 78.7 160.7 87 139 107c-19.4 17.8-28 24.5-38.7 30.2-11.7 6.2-13.9 8.6-14.8 16.3-.8 7.8.5 11.2 9.9 25.4 10.3 15.5 11.9 19.2 12.5 29.6 1 15.5-1.7 28-10.3 48-6.7 15.4-9.3 19.5-16 24.4-6.4 4.8-8.6 7.6-8.6 11.2 0 6.3 13.4 6.5 25.6.5 9.8-4.9 18.9-11.8 21.4-16.3 1.1-2.1 2.4-4.5 2.9-5.3.5-.8 4-8 7.6-16 3.7-8 9.7-20.6 13.4-28 3.6-7.4 6.6-14 6.6-14.5 0-.6.3-1.2.6-1.5.9-.7 8.4-17.8 9.7-22 .6-1.9 1.4-5.3 1.8-7.5 1-5.5 9.4-27.6 13.7-36 2.9-5.5 4.3-8 5.9-9.9 4.5-5.5 19.6-30 22.8-37.1 6.7-14.4 7.5-21.2 3.1-25.6-3.5-3.5-7.9-3.7-15.6-1zm9 11.3c-1.8 8.4-9.8 21.9-25.5 42.9-9.6 12.9-16.6 28.5-23.5 51.8-4.5 15.3-5.8 18.8-16.2 40.6-27.8 58.7-27.8 58.6-42.3 66.4-4.5 2.4-8.3 4.1-8.6 3.8-.3-.2 2.3-3.1 5.6-6.3 7.5-7.3 17.2-22 20.1-30.5 1.2-3.5 3-7.5 3.9-8.9 2.8-4 4.3-15.3 3.9-29-.4-11.7-.6-13-3.7-19.5-1.8-3.8-6-10.6-9.2-15.1-8.4-11.6-11-16.8-11-22.4 0-5.8 1.7-7.5 12.2-12.3 11.7-5.3 16.7-8.9 40.2-29 2.7-2.3 6.9-6.3 9.4-8.9 2.4-2.6 7-6.4 10.1-8.5 3.1-2.1 5.8-4.1 6.1-4.4.8-.9 27.2-13.9 28.2-13.9.6 0 .7 1.4.3 3.2z"/></svg>