<svg version="1.0" xmlns="http://www.w3.org/2000/svg" width="644" height="497.333" viewBox="0 0 483 373"><path d="M336.9 9.5c-15.9 2.7-29.4 8.1-44.1 17.8-11 7.2-18.4 14.2-30.9 28.9-22.8 26.7-25.1 28.9-40.4 36.6-20.3 10.2-45.3 16.3-82.2 20.2-30.9 3.2-42.7 5.7-56.7 12-18.9 8.5-31.8 21.1-44.1 43-2.6 4.7-6.2 10.1-8 12-6.7 7.2-17.3 27-21 39.1-4.3 14.7 1 34.4 13.4 49.4 9.9 12 30.6 22.5 53.1 27.1 8.3 1.6 20.9 2 46 1.4 5.8-.2 15.7.2 22 .9 26.2 2.5 35.5 6.8 85.9 39.1 23.3 14.9 43.5 22.6 62.4 23.7 11.7.7 34.7-1.7 52.1-5.4 33.6-7.1 73.4-26.1 96.1-46 14.9-12.9 27.3-31.1 31-45.3.8-3 1.5-8.9 1.5-13 0-18.2-6.6-30.9-31.1-59.5-11.9-13.9-17.6-22.4-21.2-31.5-4.3-10.9-5-17.9-4.6-49.5.6-49.5.4-55.4-1.5-62-3.3-11.2-9.8-20.4-19.4-27.2-15.8-11.4-36.3-15.5-58.3-11.8zM369 21.1c11.9 2.4 20.9 7 28.4 14.5C408.5 46.7 411 57.2 408.9 84c-.8 9.6-1.4 29.2-1.3 43.5 0 25.4.1 26.2 2.8 35 4.5 14.9 9.6 22.9 28.2 44.6 16.3 19 22.2 28.7 25 40.6 1.9 8.4 1.3 13-3 21.9-9.5 19.8-28.1 36.2-57.2 50.8-30 15-61.7 24.2-92.9 26.8-12 1-15.6.9-25-.5-20.1-3-32.8-8.5-62-27.2-37.8-24.1-53.3-30.9-77-33.6-4.9-.5-21.1-.9-36-.8-32.9.2-40.5-.9-58.9-8.8-20.7-8.8-31-19.9-33.8-36.1-1.1-6.4-1-7.5 1.1-13.8 2.7-8 8.7-20.4 9.9-20.4.5 0 3.6-5.3 7.1-11.8 5.7-10.8 18.6-28.9 26.5-37.2 10.3-10.7 22.8-18.5 38-23.5 11.3-3.8 18.9-4.9 49.8-7.4 7.5-.6 18-1.8 23.5-2.7 5.4-.8 12.7-1.9 16.3-2.5 8.4-1.2 27.7-7.7 37.1-12.4 15.6-7.8 23.3-14.3 33.4-28 5-6.8 22.8-27.8 27.3-32.2 13-12.7 33.2-23.2 53.7-27.8 8.6-1.9 16.3-1.8 27.5.6z"/></svg>