<svg version="1.0" xmlns="http://www.w3.org/2000/svg" width="562.667" height="441.333" viewBox="0 0 422 331"><path d="M130.5 4.5c-12.9 2.7-33.7 12.3-47.2 21.8-16.2 11.5-31.3 29-44.8 52-18.7 32-25.4 57.9-27.2 104.9-1.2 31.6 8.5 57.3 34.7 91.8 15.6 20.5 30.7 30 58.5 37 28.5 7.2 47.5 8.6 65 4.9 18.7-3.9 23.7-5.8 69-26.4 9.4-4.3 22.2-9.4 28.6-11.5 19.4-6.4 24.5-7 57.4-6.8l29 .3 9-2.8c22-6.7 36-17 43.4-31.8 5.2-10.3 6.4-16.8 5.9-30.4-.7-15.3-3.8-23.2-17.7-43.5-5.8-8.5-14.9-22.1-20.2-30.2-10.5-15.7-16.5-22.9-26.8-32.2-6.3-5.6-10.6-8.6-32.6-22.8-5.5-3.5-17.2-12.2-26-19.3-23.8-19.1-32.7-24.6-52.7-32.6-25.4-10.2-44-15.8-64.3-19.3-8.2-1.4-17.5-3-20.6-3.6-6.9-1.3-12.7-1.1-20.4.5zm40 10.9c4.4.9 10.3 2 13 2.5 12.1 2.3 59.8 19.3 70.5 25.3 6.5 3.6 15.9 10.5 33 24.3 6.9 5.5 17 13 22.5 16.6 5.5 3.6 14.1 9.2 19 12.5 13.1 8.5 25.6 21.4 35 35.9 4.3 6.6 13.1 19.7 19.6 29.1 16 23.1 18.9 29.9 18.9 44.9 0 22.2-9.8 38.6-28.3 47.4-11.3 5.4-19.4 7.9-31.7 9.8-8.8 1.3-12.4 1.4-22.5.4-15.8-1.5-23.1-1.4-34.3.4-16.2 2.6-35.6 9.8-68.7 25.2-33.5 15.7-47.8 20.2-67.1 21-14.2.7-23.1-.4-43.4-5.3-26.5-6.3-39-14.6-54.7-36.2-16-21.9-24-37.5-27.9-54.7-1.6-6.7-1.9-12-1.8-33 .1-31.6 2-45.3 9.1-67 3.8-11.4 16.6-36.3 24.5-47.5 7.2-10.3 18.4-23.8 23.4-28.1 1.1-.9 2.6-2.5 3.4-3.5 1.3-1.6 7.6-6 14.5-10.1 9.1-5.4 25.1-10 38.5-11.1 3-.2 5.8-.7 6.2-1 1.1-1.1 20.6.4 29.3 2.2z"/></svg>