<svg version="1.0" xmlns="http://www.w3.org/2000/svg" width="485.333" height="506.667" viewBox="0 0 364 380"><path d="M244.6 13.4c-1.5.9-4.3 1.6-6 1.6-1.8 0-3.6.3-4 .7-.4.4-2.2.8-3.9.9-1.7.1-3.3.7-3.5 1.3-.2.6-1.5 1.1-2.9 1.1-4.2 0-19.5 8.6-38.6 21.8-23.7 16.2-24.8 16.9-32.6 20-5.8 2.3-8.1 2.6-19.1 2.6-12.2.1-12.7 0-22-3.7-23.5-9.4-37.7-9-53.8 1.5C40.3 72.9 27.4 98 26.4 123.5c-.3 6-1 13.7-1.5 17-1.7 9.5-.6 29.9 1.8 36.7 4.5 12.4 10.2 18.3 35.3 37.3 24.3 18.3 47.8 41.5 66.6 66 7.3 9.3 16.6 20.9 20.8 25.7 23 26.3 54.8 45.9 83.3 51.4 18.3 3.5 46.2.9 59.8-5.7 17-8.1 30.2-25 37.1-47.4 2.7-8.7 2.8-9.8 2.8-30.5 0-20.2-.2-22.4-3.2-36.5-1.7-8.3-4-18.2-5.1-22-3.6-12.9-7.4-38-7.3-48 .1-5.8 1.1-12.7 2.6-18.4.9-3.5 1.5-6.6 1.2-6.9-.3-.3-.2-1 .3-1.6.5-.6 1.2-3 1.4-5.2.3-2.3 1.2-5.5 2.1-7.1.8-1.7 1.8-4.9 2.2-7.2.4-2.3 1-4.1 1.5-4.1.4 0 .8-.8.8-1.8 0-2.7 1.9-11 3.1-13.1.5-1.1 1-3.8 1-6s.4-4.2.9-4.5c1.5-.9 1.2-16.8-.4-24.4-3.8-18.4-19.1-36.5-38.9-46.2-13.2-6.5-19.5-8.1-34.6-8.7-10.1-.3-13.1-.1-15.4 1.1zM283 22c15 5.1 28.1 15.1 35.8 27.3 11.8 18.9 11.6 31.4-.9 71.6-2.6 8.7-2.8 9.7-1.4 11.8 1.4 2.1 1.4 2.3-.4 2.3-1.5 0-2.3 1-3 3.7-1.6 6.3-3.1 15.7-3.1 19.4.1 1.9-.2 6.2-.6 9.6-1 9.7 2.3 32.6 6.7 46.2 4.2 13 8.1 40.8 8.2 58.6 0 16.2-2.4 26.7-9.4 41.3-8.3 17.2-21.3 28.2-38.9 33.1-43.7 12.1-85.4-4.7-123.2-49.9-4.4-5.2-11.9-14.7-16.7-21-18-23.9-40.6-46.1-68.2-67.1-17.7-13.4-22.5-18.2-26.9-26.8-5.4-10.9-6.2-16.1-6.3-42.1-.2-28.3.8-34 8.1-48.5 1.4-2.8 3.5-6.4 4.6-8 2.5-3.6 12.6-14.9 13.8-15.3.5-.2 3.2-1.9 6-3.8 6.8-4.6 14.7-6.8 21.4-6 2.9.3 11.7 2.9 19.6 5.7 12.9 4.6 15.4 5.2 24.9 5.6 11.9.6 21.8-1 30.4-5.1 6.4-3 28.5-17.5 29.2-19.1.2-.7 1.9-1.9 3.6-2.6 1.8-.7 4-2.1 5-3 .9-.8 3-2.2 4.5-3 1.5-.8 5.1-2.9 8-4.7 2.8-1.8 6-3.5 7-3.9.9-.3 2.4-1.1 3.2-1.8.8-.6 3.5-1.9 6-2.9s5.4-2.2 6.5-2.7c2.8-1.2 12.7-1.7 27.5-1.4 9.7.2 13.9.8 19 2.5z"/></svg>