<svg version="1.0" xmlns="http://www.w3.org/2000/svg" width="656" height="405.333" viewBox="0 0 492 304"><path d="M140.3 10.5c-7.6 2.1-11.6 3.9-18 8.2-10.7 7.1-23.1 20.1-28.5 29.9-3.1 5.6-10.9 26.9-12.4 33.7-.7 3.7-2 11.9-2.8 18.3-1.3 10.9-1.6 11.8-5.4 16.7-5.1 6.8-14.9 14.8-28.5 23.2-12.3 7.7-21.6 15.8-25.4 22.2-4.2 7.2-8.3 18.2-8.3 22.3 0 9.1 10.1 22.2 23.7 30.7 14.2 8.8 27.5 12.4 45.3 12.4 13-.1 21.5-1.5 44.5-7.6 15.1-4 19.5-4.8 27.5-4.9 8.9-.1 10.1.2 16.1 3.1 6.9 3.4 12.2 8.5 27.8 26.6 9.5 11 15.3 16.2 26.1 23.5 21.9 14.7 48.1 23.6 80.3 27.3 18.8 2.1 54.3.2 78.2-4.3 7.5-1.3 24.3-5.6 27-6.7 1.1-.5 5.2-2.1 9-3.6 10.1-3.8 24.8-11.9 33-18.1 9.5-7.1 21.4-19.6 25.8-27.3 19-32.3 7.3-54.9-38.1-73.5-15.1-6.3-19.1-8.5-22.7-12.8-4.9-5.9-6.6-11.8-8.5-30.4-2.4-23.4-6.8-39.5-13.7-49.4-13.2-19.2-38.9-33.5-71.1-39.6-9.9-1.9-26.1-1.5-39.7 1-9.9 1.9-11.3 2.3-25.5 8-18.9 7.5-33.9 9.5-45.1 5.9-4.6-1.5-7.4-3.6-19.2-15.1-11.6-11.2-14.9-13.9-21.4-17-6.7-3.1-8.8-3.6-16.2-3.9-5.4-.2-10.6.3-13.8 1.2zm26.6 9.5c2.7 1.3 9.4 6.9 17.5 14.9 14.8 14.5 19 17.3 30.1 20.1 15.2 3.9 28.4 2.2 50.5-6.4 7.4-2.9 15.5-5.8 18-6.4 8.2-2 26.4-3.4 34.6-2.8 26.9 2.2 53.6 15.1 64.3 31.1 6.2 9.2 10 23.5 12.1 46 1.7 18.8 4.3 27 11.3 35.9 4.5 5.6 12.6 10.5 29.4 17.6 8.1 3.4 17.4 7.8 20.5 9.7 7.8 4.6 14.5 11.5 15.8 16.1 4.9 17.6-7.6 41-31.5 59-8.8 6.6-30 17.1-42.7 21.1-21.9 6.9-56.2 10.7-87.8 9.8-28.9-.8-50-5.8-71-16.8-13.6-7.1-23.7-15.5-36-29.9-17.6-20.6-27.6-28.1-42.6-31.6-10.6-2.5-20-1.3-47.3 5.8-22.9 5.9-24 6.1-36.6 6.1-11 .1-14-.3-19.5-2.2-13.9-4.8-27.3-15.4-30.1-23.8-1.7-5.3-.5-13.3 3.2-21.4 4.1-8.9 11-15.5 25.2-23.7 15.6-9.2 30.2-21.5 34-28.8.9-1.7 2.3-8.5 3.2-15 2.7-20.5 6.1-32.5 13.3-47.4 1.5-3 2.7-6.1 2.7-6.7 0-4.3 18-21.4 27.9-26.5 11.4-5.9 23.6-7.3 31.5-3.8z"/></svg>