<svg version="1.0" xmlns="http://www.w3.org/2000/svg" width="402.667" height="185.333" viewBox="0 0 302 139"><path d="M262.6 4.9c-.3.5-1.1 6.7-1.6 13.7-1.3 15.3-2.8 20.1-8 24.7-4.5 4.1-12.6 6.3-19.9 5.2-11-1.5-11.4-1.7-18.7-8.6-4-3.8-8.5-7.1-10-7.5-3.9-1-12.8 1-18.1 4.1-6.2 3.7-9.7 9.1-12.2 18.7-4.5 17.1-6.3 21.7-10.2 26.2-2.8 3.1-5.5 5-9 6.1-7.8 2.6-10.7 1.6-20.1-7-9.8-9.1-16.9-12.8-25.3-13.3-12.7-.8-22.2 6.7-34.5 27.4-11.1 18.8-19.6 25.8-31 25.7-11.3-.1-14.7-3.7-17.6-18.7-1.5-7.5-2.7-9.6-5.5-9.6S17 95.1 17 102.7c.1 11.2 4.3 17.8 14.5 22.5 4.3 1.9 6.7 2.3 16.5 2.3 10 0 12.1-.3 16.2-2.3 7.9-3.9 13.7-10 22.6-23.7C98.8 82.9 105.2 77 113 77c4.4 0 6.4 1.3 15.7 10.1 9.9 9.3 15.7 11.9 26.4 11.9 5.1 0 8.1-.6 11.2-2.1 11.2-5.7 14.2-10.1 19.1-28.7 2-7.3 4.3-14.4 5.2-15.7 2.4-3.6 6.5-6.3 11.4-7.4l4.2-.9 6.3 5.8c7.7 7.2 10.5 8.7 18.6 9.9 7.8 1.1 8.7 1.1 17.2.4 4.3-.3 7.4-1.1 8.4-2.1.9-.9 2.3-1.7 3.2-1.8 2.4-.4 8.9-8.2 10.2-12.3.6-2 1.3-10.4 1.6-18.7l.6-15.1-3.1-3.1c-3.1-3.2-5.6-4-6.6-2.3z"/></svg>