<svg version="1.0" xmlns="http://www.w3.org/2000/svg" width="268" height="226.667" viewBox="0 0 201 170"><path d="M165 31.7c-19 11.4-39.2 25.5-73.5 51.2-21.8 16.3-28.8 21.7-41.7 32.5-6.6 5.5-6.7 5.5-4.3 1.8 1.4-2 2.9-4.2 3.4-4.8 2.1-2.6 5.1-9.5 5.1-11.9 0-3.3-4.1-7.5-7.3-7.5C40.9 93 5 120.2 5 124.6c0 .7 1.3 1.5 3 1.9 2.5.5 4-.2 10.7-5.2C27 115.1 35.8 109 36.5 109c.3 0-1.7 3-4.3 6.8-6.6 9.1-12.9 19.8-14.2 23.8-1.4 4.1 0 6.6 5.2 9.3 4.3 2.2 5.7 1.7 12.9-4.5 3.1-2.7 9.3-8.1 13.9-11.9 4.6-3.9 11.7-10.2 15.8-14 4-3.9 8-7.2 8.6-7.5.7-.3 2.8-1.7 4.7-3.3 1.9-1.5 7.2-5.9 11.9-9.7 4.7-3.8 9.3-7.6 10.2-8.4 1-.9 4.1-3.2 7-5.2 4.8-3.4 16-12 19.8-15.2 2.1-1.9 33.1-23.8 41.8-29.6 3.9-2.7 7.2-5.4 7.2-6.2 0-2.2-2.3-6.4-3.4-6.3-.6 0-4.5 2.1-8.6 4.6zm7.4 28c-22.5 13.5-36.1 24.2-34.9 27.5.7 1.8 5.8 3.2 6.3 1.7.9-2.4 26.3-21.6 34.1-25.8 1.4-.8 2.8-1.7 3.1-2.1.3-.4 2.2-1.5 4.3-2.5 3.9-1.8 5-4.8 2.1-5.9-.9-.3-1.7-.6-1.8-.6-.1 0-6 3.5-13.2 7.7zm-66.9 43.8c-1.6 1.3-5.6 4.4-8.7 6.9-3.1 2.5-6.1 4.6-6.5 4.6-1.5 0-17.7 14.1-19.6 17.1-1 1.5-4.3 4.4-7.2 6.4-4.7 3.1-17.4 16-18.3 18.5-.2.5.8 1.2 2.1 1.5 2.1.6 3.3-.1 6.9-4.1 6.3-6.9 6.8-7.4 7.9-7.4.6 0 .8-.4.4-.9-.3-.5-.1-1.2.4-1.6.6-.3.8-1.3.5-2.3-.4-1.2-.3-1.3.3-.4 1 1.3 5.1-1.7 12.1-9.1 1.9-2 3.9-3.7 4.4-3.7.9 0 5.3-3.6 10.4-8.5 1.7-1.7 6.7-5.7 11-9 9.4-7.1 10.4-8 10.4-9.4 0-1.9-3.4-1.2-6.5 1.4z"/></svg>