<svg version="1.0" xmlns="http://www.w3.org/2000/svg" width="300" height="140" viewBox="0 0 225 105"><path d="M198.4 15.7c-9.1 14.2-12.5 19-18.6 26.3-15.2 18.1-33.6 27.3-50.6 25.5-5.4-.6-6.2-.9-5.6-2.3.5-1 1-5.4 1.2-9.9.4-9.9-1.9-16.4-7.9-21.8-3.3-3-4.6-3.5-8.7-3.5-5.5 0-11.3 3.3-13.7 8-1.9 3.7-1.9 13-.1 17.5.8 1.8 3.3 5.4 5.6 7.9 4.7 5.1 4.7 5.3-5 7.9-8.7 2.4-14.2 2.9-21.6 1.7-9.5-1.5-15.9-5.2-21.2-12.3-5.5-7.2-8.6-9.4-10.7-7.7-2.3 1.9-1.8 4.2 2.4 10.6 4.5 7 10.8 11.9 21.6 17.1 7.3 3.5 8.9 3.8 17.8 4.1 11.7.5 21.4-1.6 28.2-5.9 4.2-2.7 5-2.8 8.3-1.9 7.2 2 22.2 2.4 28.9.7 15.6-4 24.6-11.5 41-33.6 5.1-6.9 19.5-34.9 18.7-36.3-.3-.4-1.4-.8-2.5-.8-1.4 0-3.6 2.6-7.5 8.7zm-84 28.4c1.4 7-.2 15.4-3.4 17.4-1.5 1-5-2.3-6.7-6.3-1.8-4.2-.4-9.2 3.4-12.2 3.8-2.9 5.9-2.6 6.7 1.1z"/><path d="M27.2 35.2c-.5.7-1.3 7-1.7 14-.7 12.1-.6 12.7 1.5 14.8 3.3 3.3 6.4 2.3 6.8-2 .1-1.9.7-6.5 1.3-10.3 1.2-7.6.8-7.4 10.9-5.2 3.6.8 7.7 1.4 9.3 1.5 6.6.1.5-7.7-7.8-9.8-5.1-1.4-17.8-4.2-18.6-4.2-.4 0-1.1.6-1.7 1.2z"/></svg>