<svg version="1.0" xmlns="http://www.w3.org/2000/svg" width="306.667" height="166.667" viewBox="0 0 230 125"><path d="M182.6 31c-17.9 8.9-21.5 11.1-21.6 13.1 0 .4.9 1.7 1.9 3 1.6 2 2.2 2.2 4.2 1.2 1.3-.7 9.5-4.3 18.2-8.2 11.4-5 15.7-6.5 15.2-5.3-.4.9-.9 5.8-1.2 10.7-.5 7.7-.3 9.3 1.1 10.8 3 3 4.3 2 5-3.6.8-6.3 3.6-16.8 4.7-18.1 3-3.4-1.2-13.7-5.4-13.5-1.2 0-11.2 4.5-22.1 9.9z"/><path d="M175.5 53.3c-8.9 9.2-15.9 15.2-22.1 19.4-9.5 6.2-21.9 11.7-29.5 12.9l-4.2.7 2.5-3.4c6.3-8.3 4.9-20.6-2.7-24.1-3.5-1.6-10.7 1.4-14.4 5.9-4.1 5-6.7 13.7-5.4 18.4l1 3.7-7.6 2.5c-18.3 6-38.8 8.1-52 5.3-4.3-.9-8.3-2.4-9.6-3.6-2.8-2.7-4.5-2.5-4.5.4 0 3.3 5.5 7.9 12.2 10.2 4.3 1.5 8.3 1.9 20.8 1.9 17.1 0 25.8-1.5 38.8-6.6 6.9-2.8 7.4-2.8 10.3-1.4 9.8 5.1 30.6.5 47.4-10.4 12.3-8 28.3-25.1 34.1-36.3 1.7-3.2 1.1-8.8-.9-8.8-.7 0-7 6-14.2 13.3z"/></svg>