<svg version="1.0" xmlns="http://www.w3.org/2000/svg" width="300" height="156" viewBox="0 0 225 117"><path d="M129 10.5c-13.7 2-23 4.1-35.5 8.1-11 3.5-38.6 16.2-39.9 18.3-.4.6-1.4 1.1-2.3 1.1-2.8 0-15.2 9.2-21.6 15.9-7 7.5-13.4 19.1-14.3 26.1-.7 5.5 2.4 14.6 6.7 19.4 1.6 1.8 5.5 4.5 8.9 6 17.8 8 34 4.8 48.9-9.7 9.2-9 12.9-16.1 12.4-23.7-.3-5.8-2.1-8.7-8.5-13.4-3.5-2.5-5.3-3.1-10.9-3.4-6.2-.4-7.2-.1-14 3.4-14.4 7.6-19.2 15-15.3 23.5 3.6 8 17.7 11.7 24.3 6.3 4.9-3.9 7.1-6.8 7.1-9.2 0-3.1-6.5-9.2-9.9-9.3-4.1-.1 6.5-4.8 11-4.8 4.9-.1 6.2 1.6 5 6.8-1.8 8-8.5 15.5-19.3 21.3-8.4 4.6-14.4 6.1-21.1 5.3-9.1-1-12.3-2.6-13.7-7-3.9-11.7 6.4-29.3 23.9-40.7C55 48.1 59 45 59.7 44c.8-1.1 2.1-2 2.9-2 .8 0 1.4-.5 1.4-1 0-.6.6-1 1.3-1 .7 0 3-.9 5.2-2s4.5-2 5.3-2c.7 0 3.9-1.3 7-2.9 6.7-3.5 9-4.4 11.7-4.7 10-1.1 12-1.4 12.3-2.3.2-.5 1-.7 1.8-.4.8.3 1.4.1 1.4-.4s.8-.9 1.8-1c3.6-.2 18.2-3.2 19.4-4 .7-.4 3.3-.8 5.8-.9 2.5-.1 4.7-.3 5-.4 1-.4 26.6 0 33 .5 6 .5 16.8 1.7 18 2 .3.1 2.1.5 4 .9 6.6 1.4 13.5 3.9 16.2 5.7 3.3 2.4 3.8 2.4 3.8 0 0-4.6-12.2-11.3-26-14.3-20.9-4.6-43.7-5.8-62-3.3z"/></svg>