<svg version="1.0" xmlns="http://www.w3.org/2000/svg" width="173.333" height="200" viewBox="0 0 130 150"><path d="M51.5 24c-1.1 1.8 2.3 6.5 9.7 13.5 12.5 11.8 19.4 16.8 23.6 16.9 2.6.1 3.7-.4 4-1.5C89.5 49.1 60 23 54.9 23c-1.5 0-3.1.4-3.4 1zM33.6 70.7c-.8 2-.8 4.8 0 4 .4-.4 1.5.3 2.5 1.5 1.1 1.1 1.9 1.8 1.9 1.3 0-.4.6-.2 1.4.4.8.6 1.8 1.1 2.2 1 .5-.1 1.6.1 2.4.4.8.4 8.6 1.8 17.4 3.1 8.7 1.4 16.9 3.2 18.2 4.1 3.1 2 8.3 2 9.1-.1 1.5-3.9-4.7-8-15.9-10.7-4-1-8.9-2.2-10.8-2.7-1.9-.5-6-1.2-9-1.5-3-.3-6.6-.7-8-1-6.8-1.4-10.8-1.3-11.4.2zM95 108.2c-12.2 3.6-33.6 8-47.4 9.8-4.3.5-8.5 1.5-9.2 2.1-2.2 1.8-1.6 5.1 1.3 7.6 2.2 1.9 3.8 2.3 9.7 2.3 10.9 0 43.9-8.1 57.4-14.2 4.7-2.1 5.5-4.5 2-6.7-4.3-2.6-7.2-2.8-13.8-.9z"/></svg>