<svg version="1.0" xmlns="http://www.w3.org/2000/svg" width="200" height="141.333" viewBox="0 0 150 106"><path d="M132 14.2c-4.7 1.7-18.8 6.6-31.5 11C63.2 38.3 22.1 55.8 22 58.6c0 .6.7 1.7 1.6 2.5 1.3 1 2.4.9 6.7-.6 2.9-1 5.7-2.1 6.2-2.6 1.1-.8 22.1-9.9 23-9.9.2 0 3.4-1.4 7-3 3.6-1.7 6.8-3 7.1-3 .3 0 2-.7 3.7-1.5 3.2-1.4 11.4-4.5 29.7-11.1 35.2-12.7 35.5-12.8 35.5-15.3 0-1.3-.4-2.5-1-2.6-.5-.1-4.8 1.1-9.5 2.7zM52 68c-21.6 4.4-24.3 5.3-23.8 7.8.4 2 .7 2 13.1-1.2 5.4-1.3 15-3.5 21.2-4.7C73.3 67.8 77 66.6 76 65.7c-1.9-1.6-7.9-1.1-24 2.3zm2.5 18.7c-12.1.3-38.2 2.3-40 3-1.9.7-1.9 3.7-.1 5.2.8.7 2.5.9 3.8.7 6.7-1.6 40.1-3.2 82.3-4.1 14.3-.4 26.4-1 26.8-1.4.4-.4.5-1.5.1-2.5-.6-1.5-3.3-1.6-32.3-1.4-17.4.2-35.6.4-40.6.5z"/></svg>