<svg version="1.0" xmlns="http://www.w3.org/2000/svg" width="181.333" height="181.333" viewBox="0 0 136 136"><path d="M65 25.4C46.6 37.6 30.5 63.6 22.4 94c-3.1 12-4.1 20.9-2.5 23.9 1 1.8 1.9 2.2 5.4 1.9 4.8-.3 3.8 1.6 11.8-23.7 4.6-14.7 13.3-33 20-41.9C64 45 78.3 29 80.2 28.4c2.4-.7 2.3-2.9-.4-5.4-3.4-3.1-7.5-2.5-14.8 2.4zm24.4 22.2c-12.6 8.4-28.8 30.3-31 41.9-1.4 7.5 5.6 8.8 9.2 1.8 1-2.1 2.3-4.2 2.7-4.8.7-.9 3.6-5.2 6.2-9.4 3.8-6.1 15.1-20.4 16.6-20.9.5-.2.9-1 .9-1.8 0-.7 1.4-2 3-2.9 3.7-1.9 3.9-4.2.4-5.5-3.5-1.4-3.6-1.3-8 1.6zm27.5 14.2c-.1.4-.1 1.1 0 1.6s-.5.6-1.3.3c-1.9-.7-13.3 7.9-17.5 13.1-1.7 2.2-3.8 5.6-4.6 7.6-1.4 3.4-1.4 3.6.9 5.1 1.4 1 3 1.3 4.3.8 2.3-.9 10.2-9.6 12.9-14.2 1-1.7 2.5-3.3 3.4-3.6.8-.3 2.2-1.8 3.1-3.3 1.1-2 2.4-2.9 4-2.8 1.9.1 2.5-.5 2.7-2.4.3-2.4 0-2.6-3.8-2.7-2.2-.1-4.1.1-4.1.5z"/></svg>