<svg version="1.0" xmlns="http://www.w3.org/2000/svg" width="160" height="128" viewBox="0 0 120 96"><path d="M79.8 9.7c-.9.9-3.5 7.1-5.8 13.7-4 11.7-6.8 17.2-7.6 15.1C62 28 55.5 21 50 21c-3.8 0-4.6 1.4-7 11.6-1.1 4.9-2.5 10.6-3.1 12.8l-1 3.9-2.4-3.5c-2.9-4.2-9.6-7.4-12.4-5.8-1.4.7-2.1 2.6-2.6 7.2-.9 9.4-3.4 22.7-5.1 28-2.1 6.6-1.6 10.2 1.6 10.6 1.7.2 2.9-.4 3.8-1.8 1.9-3.1 6.8-16.8 7.6-21.4l.7-3.8 3.3 3.5c3.5 3.9 6.5 5 11.6 4.5 4.5-.4 6.7-3.7 8.5-12.8 2.7-13.2 2-12.2 6-8.4 2.1 2 5 3.6 7.3 3.9 2 .4 4.4.9 5.3 1.1.9.3 2.3-.1 3-.9.8-.7 2.2-1.6 3.1-2 2.4-.9 4.9-5.9 7.3-15.1l2.1-7.9 6.3 10.1c3.5 5.6 6.6 10.4 6.9 10.6.4.2 2.2.7 4 1.1 3 .6 3.2.5 3.2-2 0-2.4-7.9-19.1-12.9-27.2-2.3-3.7-9.6-9.3-12-9.3-.9 0-2.4.7-3.3 1.7z"/></svg>