<svg version="1.0" xmlns="http://www.w3.org/2000/svg" width="186.667" height="118.667" viewBox="0 0 140 89"><path d="M95 12c-1.9.5-7.4 1.6-12.2 2.5C50.8 20.4 28 35.1 18 56.1c-3.6 7.7-3.9 12.7-.8 15.3 2.1 1.9 2.2 1.8 4.2-.7 1.2-1.4 4.1-5.8 6.5-9.6 2.4-3.9 4.8-7.1 5.3-7.1.4 0 .8-.7.8-1.5s.7-1.5 1.5-1.5 1.5-.4 1.5-.8c0-1.7 11.6-9.5 19.5-13.2 15.1-7.1 30.9-10.5 54-11.6 7.7-.4 14.8-1.1 15.7-1.6 1.3-.6 1.7-2 1.6-4.8-.1-3.9-.2-4-6.2-6-6.3-2.1-19.6-2.6-26.6-1z"/><path d="M84.2 36.1c-18.1 2.3-38.1 14.4-44.1 26.6-2.4 4.8-2.7 11.9-.7 14.6 2.1 2.8 3.1 2 4.6-3.3.7-2.7 1.7-5 2.2-5 .4 0 .8-.9.8-2s.5-2 1.1-2c.6 0 3.1-1.7 5.7-3.9 2.6-2.1 5.9-4.1 7.5-4.5 1.5-.3 2.7-1.1 2.7-1.6 0-.6.7-1 1.5-1s1.5-.4 1.5-.9c0-.6.8-1 1.8-.9.9 0 4.2-.7 7.2-1.6 3-.9 6.5-1.6 7.7-1.6 1.2 0 2.3-.5 2.5-1.2.3-.8 2-.9 6.6-.1 4.4.7 6.2.6 6.2-.1 0-.8.3-.8.8 0 .9 1.5 7.5 2.6 10.5 1.9 1.9-.5 2.4-1.3 2.6-4.9.2-4.1 0-4.4-3.4-6.1-3.4-1.5-14-3.6-17.5-3.4-.8.1-4.4.5-7.8 1z"/><path d="M92.5 58.9c-11.7 3-22.9 7.3-25.7 9.9-2.2 1.9-2.3 4.5-.3 6.2 1.7 1.4 9-.4 27-6.8 15.5-5.5 14.5-5 14.5-8.8 0-4.3-.7-4.3-15.5-.5z"/></svg>