<svg version="1.0" xmlns="http://www.w3.org/2000/svg" width="480" height="266.667" viewBox="0 0 360 200"><path d="M201 17.6c-40.9 4.9-75.7 15.3-111.3 33.3-26.4 13.4-52.9 31.6-57.8 39.9-1.2 2-4.4 6.7-7 10.3-6.6 9-8.9 14.3-8.9 20.9 0 7.4 2.6 12.5 9.1 18.4 6.4 5.9 14.9 10 25 12.4 10.9 2.5 59.4 2.4 80.4-.1 36.2-4.5 87.7-14.2 96.5-18.3 4.6-2.2 17.2-6.5 17.7-6 .5.4-14 7-26.1 11.8-43 17.1-121.5 38-160.9 42.8-5.3.7-9.9 1.6-10.2 2-1 1.6.9 4.8 4 6.4 2.8 1.5 4.8 1.8 10.7 1.3 33.8-2.6 107.1-19.9 147.8-34.8 6.3-2.3 12.4-4.8 13.5-5.5 1.1-.7 4.9-2.4 8.5-3.7 9.8-3.6 30.3-14.6 40-21.2 4.7-3.2 11.2-8.8 14.5-12.4 3.3-3.6 8-8.3 10.4-10.5 16.5-15.4 20.3-18.7 25.6-22.3C339.1 71.1 345.8 56 339.9 43c-5.2-11.6-18-18.6-42.4-23.1-9.7-1.8-15.8-2.1-52-2.4-22.5-.2-42.6-.1-44.5.1zM262 30c8.6 1.1 25.6 5.7 32 8.8 5.7 2.8 12.8 8.5 16.2 13.1 5.2 7.1 5 17.8-.4 24.6-1.1 1.4-5 4.1-8.7 6l-6.7 3.3-3.5-4.6C280.3 67 242.7 59 200.6 61.9c-32.8 2.3-59.5 7.2-87.4 16.3-41.5 13.4-72.1 31.2-78.7 45.8-1.5 3.4-1.6 4.6-.7 7.7.6 2 1 3.8.8 4-.1.2-1.8-.7-3.7-2-13.5-9.1 10.2-39.1 44.9-57 19.8-10.1 25.1-12.6 28.9-13.6 2.2-.6 9.3-3.1 15.9-5.6 15.6-6 56.3-18.4 63.9-19.6 3.3-.5 6.9-1.4 8-1.9 1.1-.5 5.2-1.1 9-1.3 3.9-.3 12.9-1.3 20-2.2 7.2-1 17.3-2.1 22.5-2.5 5.2-.4 9.5-.8 9.5-.8 0-.1 3.9.3 8.5.8zm53 4.7c18.9 6.1 24 13.4 16.9 24.5-1.7 2.7-4.8 6.2-6.8 7.9l-3.6 2.9-.7-6.4c-1.2-12-7.1-21.4-18.1-28.6l-6.2-4.1 5.5.7c3 .4 8.9 1.8 13 3.1zm-95.3 37.8c26.7.6 29.1.8 41 3.4 12.5 2.8 19.3 5.5 23.9 9.5l3.9 3.4-4 1.7c-8.9 3.8-46 15.5-61 19.3C161 125.6 77.6 137.4 53 134c-4.7-.6-8.7-1.3-8.9-1.6-1-1 6.1-9.3 12.4-14.6C71.9 104.9 114.2 88.1 149 81c10.7-2.2 20.9-4.5 22.5-5 1.7-.5 5.3-1.1 8-1.4 11.7-1 16.4-1.9 15.8-2.9-.3-.6-.1-.7.5-.3.6.4 11.4.9 23.9 1.1z"/></svg>