<svg version="1.0" xmlns="http://www.w3.org/2000/svg" width="204" height="196" viewBox="0 0 153 147"><path d="M75 7.1c-1.4.5-6.4 2-11.1 3.4-30 8.7-48.6 41-46.6 81 .3 6 1.2 13.3 2.1 16.2 3.9 12.4 13.2 20.6 30.2 26.2 8.4 2.9 11.8 3.4 21.9 3.9 11.7.4 12.2.4 20.5-2.8 14.3-5.6 34-18.6 34-22.5 0-.7.7-1.5 1.5-1.9.8-.3 1.5-1.2 1.5-2s1.1-3.1 2.4-5.1c4.3-6.2 6.1-14 6.1-25.5 0-9.7-.3-11-3.1-17-4.9-10.3-16.6-21.2-27.4-25.4-6.9-2.8-18.5-3.2-25.1-1.1-10.8 3.6-23.5 20-27.5 35.6-2.1 8.2-2.2 21.5 0 25.6 5 9.9 13.6 14.6 28.7 16 7.3.6 13.1-1.8 19.7-8.4 3.8-3.8 5.2-6.3 7-11.8 3.3-10.7 3.5-15.2.8-21.1-4.2-9-13.1-14.5-21.1-13-2.3.5-5.4 2.3-8 4.7-11.1 10.2-11.4 24.4-.6 29.9 6.3 3.1 9.6 2.7 12.6-1.7 3.1-4.7 3.2-8.7.3-10.7-3.3-2.3-4.5-2-7 1.9-2.9 4.4-3.9 4.4-3.1.2C85.1 74 91.8 66 96.8 66c3.2 0 6.2 4.6 6.2 9.5 0 10.5-6.8 21.8-15.7 26-4.1 2-12.8 1.6-18.7-.9-5.5-2.3-6.8-9.2-4.1-22.1 3-14.2 11.9-28.1 20.9-32.7 9.8-5 23.1-3 31.6 4.9 7.3 6.8 10.2 13.2 10.8 24.7.7 14.7-3.6 25.6-13.9 35.1-5.1 4.7-18 11.6-28.2 15.1-17.2 6-43.4.6-49.4-10-2.9-5.3-4.3-14.2-4.4-27.3-.1-23.6 7.2-43.6 20.5-56.1 10.3-9.6 24.1-15.2 39.9-16 8.3-.4 9.7-.7 9.7-2.2 0-2.2-2.6-4.5-7.3-6.5-3.9-1.6-15.5-1.9-19.7-.4z"/></svg>