<svg version="1.0" xmlns="http://www.w3.org/2000/svg" width="424" height="249.333" viewBox="0 0 318 187"><path d="M261 19.1c-24.9 2.1-44.9 11.9-60.3 29.7-7.2 8.3-12.6 17.2-22.2 37-11.2 23.1-21.7 36.9-31 40.8-2.9 1.2-3.6 1.3-2.9.2.6-.7 4.3-5.4 8.2-10.5 7.4-9.3 14.1-22 16.3-30.6 1.8-7.3.7-17.6-2.4-23-3.6-6-11-12.4-16.1-13.8-9.2-2.5-20.9 1.3-28.6 9.3-2.3 2.4-5.9 7.9-8.1 12.3-5.3 10.8-6.6 20.1-4.5 32.1 1.9 11 5.4 18.1 11.7 23.8l4.9 4.4-6.2 5c-14.6 11.6-35 22.5-54.4 29.2-13 4.5-28 7.5-33.2 6.6-6.2-1-8.8 2.4-3.4 4.5 4.1 1.7 23.3.4 32.2-2.1 23.8-6.6 53.2-21.4 69.3-34.7 4.8-4 5-4 11.3-3.5 9.6.7 14.1-1.4 23.5-11.1 8.2-8.5 13.3-17 25.7-42.7 6.7-13.7 15.9-26.8 24.7-34.9 13.2-12 32.8-18.3 62.5-20.1 9.6-.6 18.9-1.3 20.6-1.6 4.4-.6 6.5-2.5 5.8-5.1-.6-2.1-.9-2.2-17.2-2.1-9.2.1-21 .5-26.2.9zM154 57.8c12 6 9.2 28.8-6.2 49.7-5.3 7.1-15.6 18.5-16.9 18.5-2.2 0-8.9-7.5-10.9-12.3-5.1-11.6-3.1-32.7 4.1-43.8 3-4.8 10.2-10.9 15-12.8 3.9-1.6 11.1-1.2 14.9.7z"/></svg>