<svg version="1.0" xmlns="http://www.w3.org/2000/svg" width="405.333" height="405.333" viewBox="0 0 304 304"><path d="M118.7 5c-31.9 5.7-59.6 27.7-75.5 60.2-6.6 13.4-9.3 21.6-15.3 47.2-2.7 11.6-6.7 26.7-8.9 33.6-18.6 58.2 1.7 111.6 52 137 17.2 8.7 36.1 12.5 57.8 11.7 30.9-1.1 55-9.3 88.6-30.2 9.6-6 15.8-10.7 24.3-18.9 13.6-13 19.5-20.7 26.6-34.6 7.4-14.3 10.3-22.4 13.6-38.2 1.6-7.3 4-18 5.4-23.8 5.7-23.4 6-38.6 1.3-56.5C285.4 80.6 278 65 271.1 56c-7.1-9.4-20.8-22.2-30.3-28.4-22.4-14.5-41.2-20.5-60.3-19.3-7.4.5-10.4.2-16.5-1.4-5.8-1.6-11.2-2.2-24-2.4-9.1-.2-18.7 0-21.3.5zm10.7 12.9c-2.9 1.5-7.8 4.9-11 7.5-3.3 2.5-10.6 7.8-16.4 11.8-14.2 9.6-23.6 17.6-35.7 30.2-9.7 10-10.1 10.3-8.7 6.3 7.3-20.8 31.9-44.6 54.9-53.2 6.4-2.4 16.9-5.2 20.5-5.4.8 0-.8 1.2-3.6 2.8zm79.2 3.2c8.1 2.4 19 8.1 27.1 14 8.5 6.2 23.3 21.4 28.1 28.9 7 10.8 11.6 25.1 13.6 42l.5 4.5-1.8-5c-8-21.6-21-41.3-38.2-58.1-10.7-10.3-17.5-15.5-30.3-23.1-9.8-5.8-9.5-6.4 1-3.2zm-28.1 9c8.2 3 16.2 8.9 25.2 18.2 15.5 16.2 24.8 33.7 30.3 57.1 4.4 18.8 5 42.9 1.5 61.6-3.7 19.4-14.2 44.1-20 46.9-9.1 4.4-24.6 8.1-34 8.1-11 0-26.9-4.6-37.5-10.9-29.9-17.8-48.2-57.2-45.6-98.1 1.5-22.9 5.1-39.1 12-53.6 7.9-16.6 14-23.8 23.6-27.7 8.4-3.5 8.3-3.6 3.7 5.5-12.2 24-12.1 57.5.3 76.8 6 9.3 19 18.7 22.7 16.4 2.9-1.8 2.5-3.2-1.4-5.7-2.2-1.4-6-4.8-8.6-7.7-5.4-6-8-13.1-9.9-27-2.7-20.5 4.5-45 17.4-59.1 3.8-4.2 3.8-4.2 9.3-3.5 3 .3 7.9 1.5 11 2.7zm36 11.8c9 6.8 20.4 18.6 27.4 28 7.1 9.6 15.7 26.6 19.6 38.6 3.5 11 6.5 29 6.5 39.3-.1 10.5-1.8 16-8.6 27.3-4.4 7.3-17.5 22.9-19.3 22.9-.4 0 .8-4.4 2.5-9.8 5.1-15.2 6.4-23.3 7.1-41.7.9-27.4-2.8-46.5-13.2-68.3-7-14.6-14-24.6-24.8-35.6-8.8-8.9-8.2-9.1 2.8-.7zM93 65.8c-5.1 15.8-7.1 27.4-7.7 45.3-.6 18.1.3 27.3 4.2 42.4 9.8 37.8 36.1 65 71.4 74.2 11.3 2.9 28.5 3.5 39.4 1.4 3.7-.7 7-1.1 7.3-.8 2 2-18.6 20.5-32 28.8-15.1 9.3-30.9 14.7-45.6 15.6-40 2.4-74-32.3-86.2-88-2-8.9-2.3-13.1-2.3-33.2 0-21.6.2-23.3 2.3-28.6 2.8-6.9 10-19.2 17.9-30.1C66.9 85.5 93.5 57 95.1 57c.4 0-.6 4-2.1 8.8zM30.1 191.5c8.6 34.2 25.2 59.4 49.9 75.6 26.9 17.7 62.7 18.6 95.1 2.4 17.8-9 39.2-27.1 51.8-44 4.1-5.4 7.2-8.2 14.2-12.7 4.9-3.2 11.2-7.9 13.9-10.4 2.8-2.6 5-4.4 5-4 0 2-7.6 15.3-12.8 22.3-15.1 20.4-35.4 36.3-62.7 49.4-24.6 11.7-39.6 15.4-63 15.4-19.5 0-27.5-1.8-44-9.9C59 266.4 47.4 255 38 236.9c-8-15.5-10.2-24.5-10.6-42.9-.1-8.5 0-14.4.2-13 .3 1.4 1.4 6.1 2.5 10.5z"/></svg>