<svg version="1.0" xmlns="http://www.w3.org/2000/svg" width="160" height="188" viewBox="0 0 120 141"><path d="M57.5 13.5c-12.1 6-24.8 18.3-32.9 31.8-4 6.7-4.3 10.2-1.1 10.2 1.9.1 6.5-5.2 6.5-7.4 0-1.7 18-22.1 22.3-25.2 9.6-7 12.9-8.4 19.6-8.4 6.9-.1 8.8-1.4 4.6-3.3-4.8-2.2-11.5-1.4-19 2.3zM80.2 40c-11.4 2.3-22.5 12.6-29.8 27.4C47 74.3 46 77.5 46 81.2c0 10.1 7.2 17.7 17.4 18.6 9.9.8 16.7-3.2 23.8-14.2 2.1-3.3 4.7-6.5 5.8-7.3 2.1-1.5 2.7-4.9 1-5.5-.6-.2-1.2-3.7-1.3-7.9C92.4 56 90 51.8 83.8 49l-3.9-1.7 5.5-.6c9.4-.9 14.9 1.8 17.5 8.6.6 1.6 1.1 6.4 1.1 10.7 0 13.5-5 26-15.7 39.2-12.1 14.9-27.7 22.6-40.4 19.9-10.5-2.3-17.3-7.9-23-19.1l-3.4-6.5.1-16c0-12.8.3-16.8 1.7-19.9 1.9-4.4 1.1-6.4-2.7-6.4-2.1 0-2.5.9-4.6 10-6.6 29 4.4 54.4 26.7 61.7 8.5 2.8 20.2 2.8 27.5.1 8.2-3.1 20.1-13 27.4-22.9 8.9-12 12.5-21.5 13.2-34.6.5-12.5-.7-17.3-5.9-23-6.7-7.2-15.6-10.3-24.7-8.5zM69 58.2c-1.1 2.4-2 6.2-2 8.6 0 6.5 2.3 10 8.6 12.9l5.4 2.5-2.6 3.1C74.7 89.9 67.2 94 62.7 94 51.9 94 51 80 61 65.6c3.2-4.7 8.9-11.6 9.6-11.6.1 0-.6 1.9-1.6 4.2zm16.5 1.5c1.1 3.6 1 5.3-.2 10.3-1.5 5.8-1.6 6-4.9 6-2.5 0-3.8-.7-5-2.5-1.5-2.3-1.5-3 .2-9.4 1.2-4.9 2.4-7.2 3.8-8 3.4-1.6 4.8-.8 6.1 3.6z"/></svg>